
<svg xmlns="http://www.w3.org/2000/svg" version="1.1" xmlns:xlink="http://www.w3.org/1999/xlink" preserveAspectRatio="none" x="0px" y="0px" width="226px" height="226px" viewBox="0 0 226 226">
<defs>
<g id="Layer1_0_FILL">
<path fill="#000000" stroke="none" d="
M 202.7 46.75
Q 202.6 46.55 202.55 46.35 202.45 46.15 202.4 45.95 202.3 45.75 202.2 45.6 202.15 45.4 202.15 45.2 202.15 45 202.1 44.75 202.1 44.55 202.05 44.35 202 44.15 201.95 43.95 201.85 43.75 201.75 43.6 201.65 43.4 201.55 43.25 201.45 43.05 201.3 42.9 201.3 42.65 201.25 42.45 201.15 42.25 201.1 42 201 41.8 200.9 41.6 200.8 41.45 200.7 41.35 200.6 41.2 200.5 41.05 200.45 40.9 200.45 40.7 200.35 40.55 200.3 40.35 200.25 40.2 200.15 40.05 200.05 39.9 199.9 39.75 199.8 39.55 199.65 39.4 199.5 39.25 199.4 39.1
L 199.35 39.05
Q 199.25 38.9 199.2 38.75 199.15 38.6 199.05 38.45 198.95 38.3 198.8 38.1 198.75 37.9 198.65 37.65 198.55 37.45 198.45 37.25 198.3 37 198.15 36.8 198 36.6 197.85 36.4 197.7 36.25 197.5 36.05 197.35 35.85 197.2 35.65 197.15 35.45 197.05 35.25 196.95 35.05 196.85 34.85 196.75 34.7 196.65 34.55 196.55 34.4 196.4 34.25 196.3 34.1 196.2 33.95
L 196.15 33.9
Q 196.1 33.85 196.05 33.8 195.95 33.6 195.8 33.4 195.65 33.2 195.45 33.05 195.35 32.9 195.25 32.8 195.15 32.75 195 32.65 194.85 32.45 194.65 32.2 194.55 32.1 194.4 32 194.25 31.85 194.1 31.75 194 31.65 193.9 31.55 193.8 31.45 193.7 31.35 193.55 31.2 193.35 31.1 193.25 30.95 193.1 30.8 193 30.65 192.85 30.55 192.7 30.4 192.55 30.3 192.4 30.2 192.25 30.05 192.1 29.95 191.95 29.8 191.75 29.65 191.6 29.55 191.45 29.5 191.35 29.4 191.25 29.35 191.1 29.3
L 191.05 29.25
Q 190.9 29.1 190.75 29 190.55 28.85 190.4 28.75 190.25 28.65 190.05 28.55 189.9 28.45 189.7 28.35 189.5 28.2 189.3 28.05 189.1 27.95 188.9 27.85 188.65 27.75 188.4 27.65 188.15 27.55 187.9 27.5 187.75 27.35 187.55 27.25 187.35 27.1 187.2 27 187 26.9 186.8 26.85 186.6 26.8 186.35 26.75 186.1 26.7 185.85 26.65 185.6 26.6 185.35 26.55 185.15 26.45 184.95 26.3 184.7 26.2 184.5 26.05 184.25 26 184 25.95 183.8 25.9 183.55 25.9 183.35 25.85 183.1 25.8 182.9 25.8 182.65 25.8 182.5 25.7 182.35 25.6 182.2 25.5 182.05 25.4 181.85 25.3 181.6 25.2 181.4 25.15 181.2 25.1 181 24.95 180.85 24.85 180.65 24.7 180.45 24.6 180.25 24.5 180.05 24.4 179.85 24.35 179.65 24.3 179.45 24.15 179.25 24 179.1 23.9 178.95 23.8 178.8 23.75 178.65 23.65 178.5 23.5 178.3 23.35 178.15 23.25 177.95 23.1 177.8 23.05 177.65 22.95 177.45 22.9 177.3 22.8 177.15 22.7 176.95 22.6 176.8 22.5 176.6 22.4 176.4 22.3 176.2 22.25 176 22.15 175.8 22.1 175.6 22 175.4 21.95 175.2 21.9 175 21.9 174.8 21.85 174.6 21.8 174.4 21.7 174.2 21.6 174.05 21.55 173.85 21.45 173.65 21.35 173.45 21.3 173.25 21.2 173.05 21.2 172.8 21.15 172.5 21.1 172.25 21.05 172 21 171.7 21 171.45 20.95 171.4 20.95 171.35 20.95 171.15 20.8 170.9 20.7 170.65 20.6 170.4 20.5 170.15 20.4 169.85 20.3 169.6 20.3 169.35 20.25 169.1 20.2 168.8 20.2 168.75 20.2 168.7 20.2 168.5 20.1 168.35 19.95 168.2 19.9 168 19.8 167.8 19.7 167.6 19.65 167.35 19.55 167.05 19.5 166.8 19.45 166.5 19.45 166.25 19.4 165.95 19.4 165.7 19.4 165.4 19.4 165.15 19.4 164.9 19.35 164.65 19.25 164.4 19.1 164.15 19 163.9 18.9 163.65 18.85 163.35 18.8 163.15 18.75 162.9 18.7 162.7 18.7 162.5 18.65 162.25 18.65 162.05 18.6 161.8 18.6 161.6 18.6 161.45 18.6 161.35 18.6 161.1 18.6 160.9 18.6 160.65 18.6 160.45 18.6 160.2 18.6 160 18.6 159.8 18.6 159.6 18.65 159.4 18.65 159.2 18.7 159.05 18.75 158.85 18.85 158.65 18.95 158.5 19 158.35 19.1 158.2 19.25 158.05 19.35 157.9 19.5 157.75 19.65 157.65 19.8 157.5 19.95 157.4 20.1 157.35 20.25 157.25 20.45 157.2 20.65 157.1 20.8 157.05 21 157.05 21.2 157 21.4 157 21.6 157 21.8 157.05 22 157.05 22.0703125 157.05 22.15 156.8 22.55 156.75 23 156.55 25.1 156.55 27.15 156.6 29.05 156.6 30.9 156.6 31 156.55 31.05 156.55 31.15 156.5 31.25 156.5 31.3 156.45 31.4 156.45 31.5 156.45 31.55 156.45 31.65 156.4 31.7 156.4 31.8 156.4 31.85 156.4 31.95 156.4 32 156.4 32.1 156.4 32.2 156.4 32.25 156.4 32.35 156.4 32.4 156.4 32.5 156.4 32.55 156.4 32.6 156.4 32.65 156.4 32.7 156.35 32.9 156.3 33.1 156.15 33.95 156.2 34.85 156.2 35.7 156.2 36.55 156.2 37.4 156.2 38.3 156.2 39.15 156.2 40.05 156.2 40.95 156.2 41.85 156.2 42.2974609375 156.3 42.7 156.102734375 43.7650390625 156.15 44.85 156.1953125 46.0759765625 156.2 47.3 156.134765625 47.8484375 156.2 48.4 156.1962890625 48.46640625 156.2 48.5 156 49.05 156 49.65 156 52 156 54.35 156 56.8 156 59.25 156 61.5 156 63.7 156 66.25 155.95 68.8 155.8607421875 71.4333984375 156.1 74 154.98046875 102.8189453125 154.6 119.8 154.206640625 137.4669921875 154.25 152.95 152.383984375 151.06328125 149.75 149.85 144.85 147.65 138.25 147.85 133.5 148.05 126.65 149.65 113.95 152.75 103.55 159.3 91.6 166.9 86.25 177.05 80.8 187.25 84.35 197.2 88.05 207.45 99.2 210.65 110.25 213.8 122.75 210.95 134.65 208.25 144.15 201.05 155.75 192.3 159.9 180.55 161.5099609375 175.9029296875 161.65 171.2 162.4341796875 170.2666015625 162.5 168.6 163.9458984375 127.9451171875 163.45 87.85 163.5626953125 87.7873046875 163.65 87.7 163.75 87.6 163.85 87.5 163.95 87.45 164.1 87.35 164.2 87.3 164.3 87.2 164.4 87.15 164.5 87.1 164.6 87 164.7 86.9 164.75 86.9 164.8 86.9 164.85 86.9 164.9 86.85 165.1 86.85 165.25 86.8 165.35 86.75 165.5 86.7 165.65 86.65 165.8 86.6 165.9 86.5 166.05 86.45 166.2 86.4 166.4 86.35 166.55 86.3 166.7 86.2 166.85 86.15 167 86.1 167.15 86.05 167.3 86 167.45 85.95 167.55 85.95 167.65 85.9 167.75 85.85 167.85 85.85 167.95 85.8 168.15 85.8 168.35 85.8 168.55 85.8 168.75 85.8 168.9 85.8 169.1 85.8 169.3 85.8 169.5 85.8 169.6 85.85 169.75 85.9 169.85 85.95 170 86 170.15 86.05 170.25 86.1 170.4 86.1 170.55 86.15 170.7 86.15 170.8 86.2 170.9 86.25 171 86.3 171.15 86.35 171.25 86.4 171.35 86.45 171.5 86.5 171.6 86.6 171.7 86.65 171.8 86.7 171.95 86.75 172.05 86.8 172.15 86.8 172.3 86.9 172.4 86.95 172.55 87.05 172.65 87.1 172.8 87.15 172.95 87.2 173.05 87.3 173.2 87.35 173.3 87.45 173.45 87.5 173.6 87.55 173.7 87.6 173.85 87.7 174 87.75 174.15 87.85 174.3 87.95 174.4 88 174.45 88.1 174.55 88.15 174.6 88.2 174.6 88.4 174.6 88.6 174.6 88.75 174.6 88.95 174.6 89.15 174.6 89.35 174.6 89.5 174.6 89.7 174.6 89.9 174.6 90.05 174.6 90.45 174.6 90.8 174.55 90.95 174.45 91.1 174.4 91.3 174.35 91.45 174.3 91.6 174.3 91.75 174.25 91.95 174.25 92.1 174.2 92.3 174.2 92.45 174.15 92.6 174.05 92.75 173.9 93.25 173.85 93.75 173.75 94.55 173.8 95.35 173.8 96.25 173.8 97.15 173.75 97.95 173.8 98.8 173.9 99.65 174.2 100.4 174.2 100.55 174.2 100.75 174.2 101.1 174.2 101.45 174.25 101.6 174.25 101.8 174.25 101.95 174.3 102.1 174.3 102.3 174.35 102.45 174.4 102.8 174.45 103.1 174.5 103.25 174.6 103.35 174.65 103.5 174.75 103.65 174.75 103.75 174.8 103.85 174.8 104 174.85 104.15 174.95 104.3 175 104.45 175.1 104.6 175.2 104.75 175.2 104.85 175.25 104.9 175.3 105.1 175.35 105.25 175.45 105.4 175.5 105.55 175.55 105.65 175.55 105.8 175.6 105.9 175.65 106.05 175.7 106.15 175.75 106.3 175.8 106.4 175.9 106.55
L 175.9 106.6
Q 175.95 106.75 176 106.9 176.05 107.05 176.1 107.2 176.2 107.35 176.25 107.5 176.35 107.65 176.45 107.8 176.55 107.9 176.65 108.05 176.7 108.2 176.8 108.3 176.85 108.45 176.95 108.55 177 108.65 177.1 108.75 177.2 108.85 177.3 108.95 177.4 109 177.5 109.1 177.6 109.25 177.75 109.35 177.85 109.45 178 109.6 178.1 109.65 178.2 109.75 178.3 109.85 178.4 109.95 178.55 110.05 178.7 110.15 178.8 110.2 178.9 110.25 179.05 110.3 179.15 110.35 179.2 110.4 179.25 110.4 179.35 110.5 179.45 110.6 179.55 110.7 179.7 110.75 179.8 110.85 179.9 110.95 180.05 111 180.2 111.05 180.35 111.15 180.5 111.2 180.6 111.25 180.7 111.35 180.85 111.4 181 111.45 181.15 111.5 181.25 111.6 181.4 111.65 181.5 111.75 181.6 111.8 181.75 111.9 181.85 112 182 112.05 182 112.1 182.05 112.1 182.15 112.2 182.3 112.3 182.4 112.4 182.5 112.5 182.6 112.6 182.75 112.7 182.85 112.75 182.95 112.85 183.1 112.95 183.2 113 183.35 113.1 183.45 113.15 183.4 113.1 183.35 113.05 183.5 113.15 183.65 113.25 183.8 113.35 183.95 113.5 184.05 113.55 184.15 113.6 184.25 113.7 184.3 113.75 184.5 113.8 184.65 113.9 184.8 113.95 184.95 114 185.05 114.1 185.15 114.15 185.3 114.2 185.4 114.25 185.55 114.35 185.7 114.4 185.8 114.45 185.9 114.55 186.05 114.6 186.2 114.65 186.35 114.75 186.5 114.8 186.65 114.85 186.8 114.9 186.9 114.9 187.05 114.95 187.15 114.95 187.25 115 187.45 115.05 187.6 115.1 188.1 115.3 188.6 115.35 190.15 115.45 191.7 115.4 193.35 115.4 195 115.4 196.35 115.4 197.7 115.45 199.1 115.45 200.4 115 200.5 115 200.6 115 200.8 114.95 200.95 114.95 201.1 114.95 201.25 114.9 201.4 114.9 201.55 114.85 201.7 114.8 201.85 114.75 201.95 114.7 202.1 114.65 202.25 114.6 202.4 114.5 202.55 114.45 202.75 114.45 202.9 114.4 203.05 114.35 203.2 114.3 203.3 114.2 203.45 114.15 203.6 114.05 203.75 113.95 203.85 113.85 204 113.8 204.15 113.7 204.25 113.65 204.35 113.6 204.5 113.55 204.65 113.5 204.8 113.45 204.95 113.35 205.05 113.3 205.2 113.2 205.35 113.15 205.45 113.1 205.6 113.05 205.7 113 205.85 112.95 206 112.9
L 206.05 112.85
Q 206.15 112.85 206.25 112.85 206.4 112.8 206.6 112.7 206.75 112.65 206.9 112.6 207.05 112.5 207.2 112.45 207.3 112.4 207.4 112.4 207.5 112.35 207.6 112.3 207.75 112.25 207.9 112.2 208.05 112.15 208.2 112.1 208.35 112 208.45 111.95 208.6 111.9 208.7 111.85 208.8 111.8 208.95 111.7 209.1 111.65 209.25 111.55 209.35 111.45 209.5 111.35 209.65 111.25 209.8 111.15 209.9 111.05 210.05 110.95 210.3 110.75 210.5 110.5 210.6 110.45 210.7 110.4 210.8 110.35 210.9 110.25 211.05 110.15 211.15 110.1 211.3 110 211.4 109.9 211.6 109.8 211.75 109.7 211.85 109.65 211.95 109.6 212.15 109.45 212.35 109.3 212.5 109.2 212.6 109.15 212.7 109.05 212.85 108.95 213 108.85 213.1 108.75 213.4 108.55 213.65 108.35 213.8 108.2 213.9 108.1 214 108 214.05 107.95 214.15 107.85 214.2 107.8 214.35 107.65 214.5 107.55 214.6 107.45 214.7 107.4 214.8 107.3 214.9 107.2 215 107.1 215.15 107 215.2 106.95 215.3 106.85 215.4 106.75 215.5 106.65 215.55 106.55 215.65 106.45 215.7 106.4 215.8 106.3
L 215.85 106.25
Q 216 106.1 216.15 106 216.25 105.9 216.3 105.85 216.4 105.8 216.55 105.7 216.65 105.65 216.75 105.6 216.85 105.5 216.95 105.45 217.1 105.35 217.25 105.3 217.4 105.15 217.55 105.05 217.7 105 217.8 104.9 217.95 104.85 218.05 104.75 218.2 104.65 218.3 104.55 218.3986328125 104.4841796875 218.5 104.4 218.5080078125 104.4 218.55 104.4
L 218.5 104.4
Q 218.559765625 104.4134765625 218.6 104.4 218.7 104.3 218.85 104.2
L 218.9 104.15
Q 219 104.1 219.1 104.05 219.2 104 219.25 103.95 219.4 103.9 219.5 103.85 219.6 103.8 219.75 103.7 219.85 103.65 220 103.55 220.1 103.45 220.25 103.35 220.35 103.25 220.5 103.15 220.55 103.05 220.65 102.95 220.75 102.9 220.8 102.8 220.9 102.75 220.95 102.65 221 102.6 221.05 102.6 221.15 102.5 221.3 102.45 221.4 102.35 221.5 102.25 221.6 102.15 221.7 102.05 221.8 101.95 221.9 101.85 222 101.7 222.1 101.6 222.15 101.5 222.2 101.4 222.25 101.3 222.35 101.15 222.4 101 222.45 100.85 222.5 100.55 222.55 100.25 222.65 99.65 222.5 99.05 222.4 98.6 222.15 98.25 221.95 97.9 221.6 97.6 221.2 97.25 220.7 97.05 220.15 96.85 219.6 96.85 219.4 96.85 219.25 96.85 219.1 96.9 218.9 96.9 218.75 96.95 218.6 97 218.25 97 217.85 97 217.3 97 216.75 97 216.2 97 215.7 97 215 97 214.3 97 213.55 97 212.8 97 212.65 96.95 212.5 96.9 212.35 96.8 212.2 96.8 212 96.75 211.85 96.7 211.65 96.65 211.5 96.65 211.3 96.6 211.15 96.6
L 211.1 96.6
Q 210.95 96.55 210.85 96.5 210.7 96.45 210.55 96.4 210.4 96.35 210.25 96.3 210.1 96.3 209.95 96.25 209.8 96.25 209.65 96.2 209.55 96.15 209.4 96.1 209.25 96.05 209.15 95.95 209 95.9 208.85 95.85 208.75 95.75 208.6 95.7 208.45 95.65 208.3 95.6 208.25 95.55 208.15 95.5 208.05 95.4 207.95 95.35
L 207.9 95.35
Q 207.85 95.3 207.75 95.25 207.65 95.15 207.55 95.1 207.4 95 207.3 94.9 207.2 94.8 207.15 94.7 207 94.6 206.9 94.5 206.8 94.45 206.7 94.35 206.6 94.25 206.5 94.1 206.35 94 206.25 93.9 206.15 93.75 206 93.65 205.9 93.55 205.75 93.45 205.6 93.4 205.5 93.35 205.4 93.3 205.3 93.25 205.15 93.2 205.05 93.15 204.95 93.1 204.8 93.05 204.7 92.95 204.55 92.9 204.4 92.8 204.3 92.7 204.15 92.6 204.05 92.5 203.95 92.4 203.8 92.3 203.7 92.25 203.55 92.15 203.45 92.1 203.35 92.05 203.25 91.95 203.15 91.9 203.05 91.85 202.95 91.8 202.85 91.7 202.75 91.6 202.6 91.55 202.5 91.45 202.4 91.35 202.3 91.25 202.2 91.15 202.1 91.05 202.05 90.95 201.95 90.8 201.85 90.65 201.75 90.55 201.65 90.4 201.55 90.3 201.5 90.25 201.4 90.2 201.35 90.1 201.3 90.05 201.2 89.9 201.1 89.75 201.05 89.65 201 89.5 200.95 89.4 200.85 89.3 200.8 89.2 200.75 89.1 200.7 89 200.65 88.9 200.6 88.75 200.5 88.65 200.45 88.55 200.35 88.4 200.3 88.3 200.2 88.2 200.2 87.15 200.15 86.15 200.1009765625 85.464453125 199.8 84.9
L 199.8 84.9
Q 199.8 84.4 199.8 83.85 199.8 83.6 199.8 83.4 199.8 83.15 199.8 82.9 199.8 82.65 199.8 82.4 199.8 82.2 199.8 81.95 199.8 81.7 199.8 81.45 199.9 81.3 200 81.15 200.1 80.95 200.2 80.8 200.3 80.6 200.35 80.4 200.4 80.15 200.45 79.95 200.5 79.7 200.55 79.5 200.55 79.25 200.6 79.05 200.6 78.8 200.6 78.55 200.6 78.35 200.6 78.2 200.6 78 200.6 77.8 200.75 77.6 200.85 77.35 200.95 77.15 201.05 76.95 201.15 76.75 201.25 76.5 201.3 76.3 201.35 76.1 201.4 75.95 201.45 75.75 201.6 75.55 201.7 75.35 201.8 75.1 201.95 74.9 202 74.65 202.05 74.45 202.1 74.2 202.1 73.95 202.15 73.7 202.2 73.45 202.3 73.3 202.4 73.15 202.5 72.95 202.6 72.8 202.7 72.6 202.75 72.4 202.8 72.2 202.85 72.05 202.95 71.95 203.05 71.8 203.15 71.7 203.25 71.55 203.35 71.35 203.45 71.15 203.5 71 203.55 70.8 203.65 70.6 203.7 70.4 203.75 70.15 203.8 69.95 203.8 69.7 203.8 69.45 203.95 69.25 204.05 69.1 204.15 68.9 204.25 68.75 204.3 68.55 204.4 68.35 204.45 68.15 204.5 67.9 204.55 67.7 204.55 67.5 204.6 67.3 204.6 67.1 204.6 66.85 204.6 66.65 204.6 66.4 204.65 66.2 204.65 66.15 204.65 66.1 204.75 65.95 204.85 65.8 204.95 65.65 205 65.45 205.1 65.3 205.15 65.1 205.2 64.95 205.25 64.75 205.3 64.55 205.35 64.3 205.4 64.05 205.4 63.85 205.4 63.6 205.45 63.35 205.45 63.1 205.45 62.9 205.55 62.75 205.65 62.6 205.75 62.4 205.85 62.25 206.05 61.7 206.1 61.15 206.2 60.3 206.2 59.5 206.2 58.55 206.2 57.6 206.2 56.45 206.15 55.3 206.1 54.6 205.9 53.95 205.7 53.35 205.4 52.8 205.3 52.65 205.2 52.5 205.15 52.3 205.1 52.1 205 51.85 204.9 51.6 204.85 51.35 204.7 51.1 204.6 50.85 204.5 50.65 204.35 50.4 204.25 50.15 204.1 49.9 204 49.65 203.85 49.4 203.75 49.1 203.65 48.85 203.55 48.6 203.45 48.3 203.35 48.05 203.25 47.8 203.15 47.5 203.05 47.3 202.95 47.1 202.8 46.95 202.7 46.75
M 162.6 26.25
Q 162.6 25.6068359375 162.6 24.9 162.718359375 24.9591796875 162.8 25 163 25.05 163.15 25.15
L 163.2 25.15
Q 163.1 25.3 163.05 25.4 163 25.55 162.95 25.7 162.9 25.85 162.85 26 162.8 26.15 162.75 26.3 162.75 26.45 162.7 26.6 162.7 26.75 162.65 26.9
L 162.65 26.95
Q 162.625 27.025 162.6 27.1 162.6 26.675 162.6 26.25
M 167.6 35.35
Q 167.6552734375 35.4328125 167.7 35.5 167.6052734375 35.5751953125 167.5 35.65 167.4755859375 35.5765625 167.45 35.5 167.5 35.45 167.6 35.35
M 165.9 45.95
Q 165.65 46 165.35 46.1 165.05 46.25 164.75 46.35 164.3 46.55 163.9 46.85 163.855859375 46.8775390625 163.8 46.9 163.809375 46.8037109375 163.8 46.7 163.8 46.1 163.8 45.5 163.8 45.3236328125 163.8 45.15 165.1873046875 45.729296875 166.9 45.4 166.8 45.5 166.65 45.55 166.55 45.65 166.4 45.7 166.3 45.8 166.15 45.85 166.05 45.9 165.9 45.95
M 181.95 40
Q 181.8111328125 39.96796875 181.65 39.9 181.7498046875 39.866796875 181.85 39.8 182.25 39.8 182.6 39.8 183.351171875 39.8 184.1 39.8 184.15 39.95 184.25 40.1 184.3 40.25 184.35 40.4 184.4 40.5 184.45 40.6 184.55 40.7 184.6 40.8 184.25 40.65 183.95 40.55 183.45 40.35 182.95 40.25 182.45 40.1 181.95 40
M 174.8 39.25
Q 174.875 39.325 174.95 39.4
L 174.9 39.4
Q 174.35 39.4 173.8 39.4 173.25 39.4 172.75 39.4 172.8 39.35 172.9 39.25 173 39.2 173.1 39.15 173.25 39.05 173.35 38.95 173.5 38.8 173.65 38.7 173.8 38.6 173.95 38.5 174.015234375 38.4349609375 174.1 38.35 174.2111328125 38.6296875 174.4 38.85 174.55 39.05 174.8 39.25
M 179.5 47.4
Q 179.6 47.4 179.7 47.4 180 47.4 180.3 47.4 180.65 47.4 180.95 47.4 181.265234375 47.4 181.55 47.4 181.427734375 47.8322265625 181.3 48.25 181.2177734375 48.2177734375 181.15 48.15 181 48.05 180.85 48 180.7 47.9 180.6 47.85 180.45 47.8 180.35 47.75 180.2 47.7 180.05 47.6 179.9 47.55 179.75 47.5 179.65 47.45 179.5 47.4
M 182.6 70.8
Q 182.6 70.95 182.6 71.15 182.6 71.35 182.6 71.6 182.6 71.8 182.6 72 182.6 72.2 182.6 72.45 182.6 72.7 182.6 72.95 182.5 73 182.4 73.05 182.35 73.1 182.25 73.1 182.15 73.15 182.1 73.2 182 73.25 181.95 73.3 181.9 73.35 181.9 73.3 181.85 73.3 181.9 73.2 181.95 73 182 72.8 182.05 72.6 182.1 72.35 182.2 72.05 182.25 71.75 182.35 71.4 182.45 71.1 182.4763671875 70.916015625 182.5 70.75 182.5603515625 70.6857421875 182.6 70.6 182.6 70.7013671875 182.6 70.8
M 177.85 55.05
Q 177.7 55 177.5 55 177.35 55 177.15 55 177 55 176.8 55 176.65 55 176.5 55 176.3 55 176.15 55 175.95 55 175.8 55 175.9 54.9 176 54.85 176.15 54.75 176.3 54.7 176.4 54.6 176.55 54.5 176.7 54.4 176.85 54.3 176.9 54.25 177 54.2 177.1 54.3 177.2 54.4 177.3 54.5 177.4 54.6 177.5 54.65 177.65 54.75 177.75 54.85 177.85 54.9 178 54.95 178 55.05
L 177.85 55.05
M 163.45 53.75
Q 163.64609375 53.8 163.85 53.8 163.9 53.8 163.9 53.85 163.66171875 54.0203125 163.4 54.15 163.4 54.13359375 163.4 54.1 163.4 54.05 163.4 53.95 163.4306640625 53.858203125 163.45 53.75
M 169.45 61.3
Q 169.3 61.3 169.2 61.3 169.05 61.3 168.9 61.25 169 61.25 169.05 61.2 169.1 61.2 169.2 61.2 169.25 61.15 169.3 61.15 169.4 61.15 169.45 61.1 169.55 61.1 169.6 61.1 169.65 61.05 169.75 61.05 169.8 61.05 169.9 61.05 169.95 61 170.05 61 170.1 61 170.15 61 170.2 61 170.3 61 170.35 61 170.4 61 170.45 61 170.55 61 170.6 61 170.65 61 170.7 61 170.8 61 170.75 61.05 170.7 61.1 170.65 61.15 170.6 61.2 170.55 61.25 170.5 61.3 170.45 61.35 170.4 61.4 170.35 61.4 170.3 61.4 170.15 61.4 170 61.35 169.85 61.35 169.75 61.35 169.6 61.35 169.45 61.3
M 163.4 66.7
Q 163.4 66.6126953125 163.45 66.55 163.569140625 66.7818359375 163.7 67 163.85 67.2 164 67.45 164.05 67.55 164.05 67.65 163.95 67.7 163.8 67.8 163.65 67.9 163.55 67.95 163.4673828125 68.005078125 163.4 68.05 163.4 67.730078125 163.4 67.4 163.4 67.05 163.4 66.7
M 175.25 74.4
Q 175.3162109375 74.3337890625 175.4 74.25 175.352734375 74.458984375 175.3 74.65 175.05 74.75 174.8 74.85 174.65 74.9 174.55 74.95 174.3 75.1 174.1 75.3 173.9 75.45 173.7 75.7 173.5 75.9 173.4 76.15 173.25 76.4 173.1 76.7 173.1 76.85 173.05 77 173 77.15 173 77.3 173 77.4 173 77.55 173 77.75 173.05 77.9 173.05 77.9822265625 173.05 78.05 172.77890625 77.853515625 172.45 77.7 171.75 77.35 170.95 77.4 171.05 77.3 171.1 77.2 171.2 77.1 171.3 76.95 171.4 76.85 171.5 76.75 171.6 76.65 171.7 76.55 171.8 76.45 171.9 76.35 172 76.2 172.15 76.1 172.25 76 172.35 75.9 172.45 75.75 172.6 75.65 172.7 75.55 172.8 75.45 172.95 75.35 173.1 75.25 173.15 75.25 173.2 75.2 173.35 75.15 173.5 75.1 173.65 75.05 173.8 74.95 173.95 74.95 174.1 74.9 174.25 74.9 174.4 74.85 174.55 74.8 174.7 74.75 174.85 74.65 175 74.6 175.1 74.5 175.25 74.4
M 180.05 85.25
Q 180.475 85.31796875 180.9 85.35 180.66484375 85.783984375 180.4 86.2 180.365625 86.0533203125 180.3 85.9 180.1443359375 85.549609375 179.9 85.2 179.9923828125 85.2404296875 180.05 85.25
M 163.35 80.95
L 163.35 80.95 163.4 80.95 163.35 80.95
M 181.35 95.75
Q 181.7 95.3 182 94.85 182.3 94.45 182.65 94 182.75 93.9 182.85 93.8 182.75 93.95 182.7 94.1 182.55 94.4 182.4 94.7 182.15 95.15 181.95 95.55 181.75 95.85 181.6 96.1 181.35 96.45 181.1 96.75 180.8 97.1 180.6 97.55 180.5 97.65 180.35 97.75 180.25 97.9 180.15 98 180.05 98.1 179.95 98.2 179.9078125 98.2421875 179.85 98.3 179.8283203125 98.198828125 179.8 98.1 179.8 97.8 179.8 97.45 179.8 97.2490234375 179.8 97 179.9 96.9900390625 180 96.95 180.4 96.75 180.7 96.45 181.1 96.15 181.35 95.75
M 193.55 79.3
Q 193.6 79.15 193.6 79 193.65 78.85 193.7 78.7 193.9404296875 78.8962890625 194.2 79 194.129296875 79.1916015625 194.05 79.35 194.03984375 79.3904296875 194 79.4 193.9423828125 79.4154296875 193.85 79.4 193.7 79.35 193.55 79.3
M 187.85 76.5
Q 187.8927734375 76.4787109375 187.9 76.45 187.9 76.5740234375 187.9 76.7 187.85 76.85 187.85 77 187.85 77.15 187.8 77.35 187.75 77.4 187.7 77.5 187.55 77.6 187.4 77.7 187.3 77.8 187.15 77.9 187 78 186.9 78.1 186.75 78.2 186.65 78.35 186.5931640625 78.4068359375 186.5 78.45 186.55 78.2818359375 186.55 78.1 186.6 77.75 186.6 77.4 186.6 77.3 186.6 77.2 186.75 77.15 186.9 77.1 187 77.05 187.15 77 187.25 76.95 187.4 76.85 187.5 76.8 187.6 76.7 187.7 76.6 187.85 76.5
M 189.85 87.45
L 189.8 87.45
Q 189.8486328125 87.448828125 189.85 87.4
L 189.85 87.45
M 199.85 97.3
Q 199.9 97.2 199.95 97.05 199.9619140625 97.026171875 199.95 97 200.074609375 97.074609375 200.15 97.15 200.187109375 97.1623046875 200.2 97.15 200.02578125 97.233984375 199.85 97.3
M 210.8 102.8
L 210.75 102.85
Q 210.7 102.85 210.65 102.9 210.6021484375 102.9478515625 210.55 102.95 210.52421875 102.8923828125 210.5 102.8 210.468359375 102.69453125 210.4 102.6 210.5048828125 102.6365234375 210.6 102.7 210.7 102.7 210.8 102.8
M 205.75 106.55
Q 205.65 106.6 205.5 106.65 205.45 106.7 205.4 106.75 205.3 106.75 205.2 106.8 205.05 106.85 204.9 106.9 204.75 107 204.6 107.05 204.45 107.05 204.3 107.1 204.218359375 107.1271484375 204.1 107.15 204.15 107.0771484375 204.15 107 204.15 106.85 204.2 106.7 204.2 106.55 204.2 106.4 204.3 106.35 204.35 106.25 205.05 106.425 205.75 106.55
M 189.6 109.4
Q 189.45 109.35 189.25 109.3 189.1 109.25 188.95 109.2 188.75 109.15 188.6 109.1
L 188.55 109.1
Q 188.5083984375 109.072265625 188.45 109.05 189.1603515625 108.9984375 189.85 108.9 190.05 108.9 190.25 108.95 190.45 108.95 190.65 108.95 190.8 109 191 109 191.15 109 191.3 109 191.45 109 191.6 109 191.8 109 191.95 108.95 191.990234375 109.1912109375 192.05 109.4 191.7814453125 109.4 191.5 109.4 190.55 109.4 189.6 109.4
M 117.3 158.5
Q 115.55 159.3 113.7 160.3 113.25 160.55 112.8 160.85 112.425 160.459375 112 160.25 116.09140625 158.11640625 120.35 156.55 118.812109375 157.378125 117.3 158.5
M 118.65 165.55
Q 118.3 165.2 117.85 164.95 120.05 163.55 122.5 162.55 120.6 163.8 118.65 165.55
M 97 180.45
Q 97.45 180.1 97.85 179.7 97.6 180.15 97.45 180.6 97.2 180.5 97 180.45
M 96 181.15
Q 95.3 181.7 94.65 181.9 94.95 181.3 95.25 180.75 95.4 180.65 95.55 180.6
L 96 181.15
M 89.2 196.95
Q 89.6306640625 196.87578125 90.05 196.65 90.4 196.45 90.75 196.25 91.7 199 94 201.25 98.7 205.95 106 206.45 106.4 206.5 106.85 206.5 108.2587890625 206.86484375 109.7 207.1 96.2447265625 206.888671875 90.95 199.8 89.92109375 198.4 89.2 196.95
M 98.7 192.6
Q 98.75 192.55 98.75 192.45 99.35 190.5 99.5 189.9 100 188.15 100.7 186.45 101.2 187 102.15 187 100.7 189.55 99.3 192.35 99 192.45 98.7 192.6
M 106.85 176.1
Q 109.5 172.8 112.05 171.15 109.65 173.3 106.85 176.1
M 149.6 154.9
Q 149.441015625 154.748046875 149.25 154.6 149.6095703125 154.75859375 149.9 154.9 149.7599609375 154.90625 149.6 154.9
M 144.55 169.45
Q 145.4 168.85 145.85 168.65 145.6 169.6 144.6 171.65 144.15 172.65 143.7 173.6 143.8 173.15 143.9 172.75 144.45 171.05 144.55 169.45
M 155.85 172.65
Q 155.943359375 172.2578125 156 171.85 156.2486328125 171.994921875 156.5 172.1 156.359765625 173.9890625 155.9 175.85 155.8802734375 175.09296875 155.6 174.45 155.75 173.45 155.85 172.65
M 134.8 153.95
Q 133.768359375 153.4890625 132.55 153.3 132.7267578125 153.2783203125 132.9 153.25 136.0052734375 152.732421875 138.8 152.65 137.122265625 153.157421875 135.35 154 137.25 154.05 139.15 154.45 139.6 154.55 139.9 154.8 141.25 154.95 142.65 155.2 141.45 155.3 140.35 155.55 140.25 155.1 139.9 154.8 137.85 154.6 135.9 154.6 135.5 154.3 135.1 154.1 135.2 154.05 135.35 154 135.05 153.95 134.8 153.95
M 134.85 168.25
Q 134.65 168.25 134.5 168.3 134.36875 168.3 134.25 168.35 134.4595703125 168.2435546875 134.6 168.15 135.1 167.9 135.65 167.7 135.25 167.95 134.85 168.25 135 168.25 135.15 168.25
L 133.1 169.85
Q 133.55 169.35 133.95 168.95 134.4 168.6 134.85 168.25
M 137.85 190.25
Q 138 190.5 138.2 190.7 136.65 191.7 134.9 192.6 136.4 191.35 137.85 190.25
M 123.9 186.65
Q 122.75 187.15 121.65 187.6 119.75 188.4 119.1 187.8
L 125.75 182.55
Q 124.7 184.55 123.9 186.65
M 153.05 183.4
Q 153.1537109375 183.2046875 153.25 183 153.2982421875 182.923046875 153.35 182.85 153.2060546875 183.1310546875 153.05 183.4
M 144.35 185.4
Q 144.45 185.35 144.55 185.3 144.25 185.6 143.95 185.9 143.75 186.15 143.5 186.45 143.45 186.25 143.45 186.1 143.9 185.75 144.35 185.4
M 124.15 201.6
Q 124.6 201.35 124.9 201.15 126.25 200.95 127.55 200.75 125.9 201.25 124.15 201.6
M 91.55 79.65
L 96.15 66.8
Q 97.3 63.6 93.7 62.1 90.15 60.55 88.75 63.7 87.675 66.16640625 86.55 68.7 80.0236328125 73.348828125 74.55 75.85 67.6 79.05 60.8 79.8 61.4 78.95 61.9 78.1 66.1 70.75 64.1 60.45 62.25 50.75 55.85 43.85 48.55 36 39.3 37.05 29.95 38.1 23.45 45.05 16.55 52.4 18 61.4 19.4 70.45 27.6 77.45 34.7 83.55 44.45 86.3 58.7 90.35 72.45 85 77.583984375 82.9720703125 81.75 79.95 76.27109375 93.038671875 70.2 108.05 64.55 122.05 52.4 152.75 50.75 157 47.55 165.55 45.95 169.75 50.45 171 54.95 172.2 56.6 168 56.2 169.15 57.45 166.05 59.1 162.35 60.75 158.15
L 70.55 133.85
Q 85.7 95.85 91.55 79.65
M 43.05 47.65
Q 43.85 48.1 43.45 49 43.1 49.95 42.15 49.65 38.55 48.25 35.5 49.6 35.95 53.65 40 57.7 37.7 55.5 36.3 53.7 34.7 51.55 32.3 52.45 32 52.6 31.75 52.75 31.65 52.7 31.6 52.7 32.1 52 32.75 51.45 34.05 50.25 35.5 49.6 35.45 48.9 35.45 48.25 35.5 46.7 36.1 45.5 35.4345703125 45.5 34.75 45.6 35.5986328125 45.238671875 36.4 44.95 36.2314453125 45.2369140625 36.1 45.5 39.35 45.45 43.05 47.65
M 25 55.3
Q 25.0802734375 55.02265625 25.15 54.75 24.2333984375 58.687890625 26.3 63.4 26.95 65 28.95 64.75 30.55 68.75 33.6 72.1 34.0748046875 72.6150390625 34.55 73.1 30.595703125 70.3466796875 27.8 66.65 23.45 60.85 25 55.3
M 42.85 50.25
Q 45.15 52.05 47.25 55.8 46.95 55.6 46.75 55.4 44.7 53.75 43.6 52.3 42.2 50.6 42 50.15 41.15 48.9 42.85 50.25
M 42 59.6
Q 42.85 60.3 43.75 61 48.5 64.55 50 65.8 49.8 66.4 49.55 66.9 48.4 65.4 46.95 64.05 43.75 61.2 42 59.6
M 57.35 64.55
Q 56.6658203125 63.5529296875 55.7 62.55 54.7 56 51.6 51.05 50.114453125 48.6966796875 48.6 47 52.8685546875 50.076171875 55.35 56.4 57.099609375 60.7103515625 57.35 64.55
M 53 73.75
Q 54 73.15 54.7 72.15 54.7 72.2 54.75 72.3 55.0689453125 73.1931640625 55.7 73.65 54.8126953125 75.2359375 53.35 76.4 53.2919921875 75.04296875 53 73.75 Z"/>
</g>
</defs>

<g transform="matrix( 1, 0, 0, 1, 0,0) ">
<use xlink:href="#Layer1_0_FILL"/>
</g>
</svg>
