
<svg xmlns="http://www.w3.org/2000/svg" version="1.1" xmlns:xlink="http://www.w3.org/1999/xlink" preserveAspectRatio="none" x="0px" y="0px" width="226px" height="226px" viewBox="0 0 226 226">
<defs>
<g id="Layer1_0_FILL">
<path fill="#000000" stroke="none" d="
M 201.1 51.4
Q 200.9 51.4 200.7 51.4 199.75 51.4 198.8 51.4 197.85 51.4 196.9 51.4 195.9 51.4 194.95 51.4 194 51.4 193 51.4 192.05 51.45 191.1 51.4 190.95 51.35 190.8 51.3 190.5 51.2 190.15 51.1 189.85 51.05 189.5 51 189.2 51 188.85 51 188.55 51 188.2 51 187.85 51 187.55 51 187.25 51 186.95 51 186.65 51 186.3 51 185.65 50.65 184.9 50.65 183.45 50.55 182.05 50.6 180.2 50.6 178.35 50.6 176.45 50.6 174.55 50.6 172.9 50.6 171.25 50.65 169.6 50.65 167.95 50.6 167.55 50.4 167.15 50.3 166.75 50.2 166.3 50.2 165.9 50.2 165.45 50.2 164.95 50.2 164.4 50.2 163.85 50.2 163.3 50.2 162.8 50.2 162.25 50.25 161.75 50.25 161.25 50.4 161.1 50.45 160.95 50.5 160.8 50.55 160.7 50.65 160.6 50.7 160.5 50.75 157.35 50.4 154.2 50.5 149.55 50.6 144.9 50.6 140.15 50.6 135.4 50.6 130.45 50.6 125.5 50.6 120.15 50.6 114.85 50.6 114.6 50.6 114.4 50.65 114.15 50.65 113.95 50.7 113.7 50.75 113.5 50.8 113.25 50.9 113.05 51 112.85 51.05 112.65 51.2 112.5 51.3 112.35 51.4 111.8 51.4 111.25 51.4 109.8 51 108.25 51 104.8 51 101.4 51 97.2 51 93.05 51 88.75 51 84.5 51 80.15 51 75.8 51 75.65 50.95 75.55 50.9 75.3 50.85 75.05 50.8 74.75 50.75 74.45 50.7 74.15 50.65 73.9 50.65 73.6 50.6 73.3 50.6 73 50.6 72.65 50.6 72.4 50.6 72.1 50.6 72 50.55 71.85 50.5 71.5 50.35 71.1 50.3 70.8 50.25 70.5 50.25 70.25 50.25 69.95 50.2 69.55 50.2 69.2 50.2 68.85 50.2 68.5 50.2 68.1 50.2 67.7 50.2 66.3 49.75 64.75 49.75 62.7 49.8 60.65 49.8 58 49.8 55.3 49.8 52.2 49.8 49.1 49.7 46.95 49.6 44.9 50.2 44.35 50.2 43.85 50.2 42.6 50.2 41.4 50.2 40.1 50.2 38.85 50.2 37.55 50.2 36.3 50.15 35.15 50.15 34.05 50.6 33.9 50.6 33.75 50.6 33.55 50.6 33.4 50.65 33.25 50.65 33.1 50.7 32.9 50.7 32.75 50.75 32.6 50.8 32.4 50.85 32.25 50.9 32.05 51 31.9 51 31.8 51 31.65 51 31.5 51 31.4 51 31.25 51 31.1 51.05 30.95 51.05 30.8 51.1 30.7 51.1 30.55 51.15 30.4 51.2 30.25 51.25 30.1 51.3 30 51.35 29.85 51.4 29.35 51.4 28.8 51.4 27.7 51.4 26.6 51.4 25.7 51.4 24.75 51.4 23.9 51.4 23.05 51.4 22.3 51.4 21.55 51.4 21.4 51.45 21.2 51.5 21.05 51.5 20.9 51.55 20.75 51.6 20.6 51.65 20.45 51.75 20.3 51.8 20.15 51.8 20 51.85 19.85 51.85 19.7 51.9 19.55 51.95 19.4 52 19.25 52 19.1 52.05 19 52.15 18.9 52.2 18.75 52.25 18.65 52.3 18.55 52.4 18.45 52.45 18.3 52.55 18.15 52.6 18.05 52.7 17.95 52.75 17.8 52.85 17.7 52.9 17.6 53 17.55 53.1 17.45 53.2 17.35 53.3 17.25 53.4 17.2 53.5 17.1 53.65 17.05 53.75 17 53.9 16.9 54 16.85 54.15 16.8 54.3 16.75 54.45 16.75 54.55 16.65 54.7 16.6 54.85 16.55 54.95 16.5 55.1 16.45 55.25 16.4 55.35 16.35 55.5 16.3 55.65 16.25 55.8 16.25 56 16.15 56.1 16.1 56.25 16.05 56.4 16 56.55 15.95 56.7 15.9 56.85 15.9 57.05 15.85 57.2 15.85 57.35 15.8 57.55 15.8 57.7 15.8 57.85 15.8 58 15.8 58.15 15.8 58.3 15.85 58.5
L 15.8 58.5
Q 15.7 58.7 15.65 58.9 15.6 59.05 15.55 59.3 15.55 59.5 15.5 59.7 15.55 59.9 15.55 60.1 15.6 60.3 15.65 60.5 15.7 60.7 15.75 60.85 15.85 61.05 15.95 61.25 16.05 61.4 16.2 61.6 16.2 61.8 16.25 62 16.25 62.2 16.3 62.4 16.4 62.6 16.45 62.75 16.55 62.95 16.65 63.1 16.7 63.25 16.85 63.4 16.95 63.55 17.1 63.7 17.25 63.85 17.4 63.95 17.55 64.1 17.7 64.2 17.85 64.3 18.05 64.35 18.25 64.45 18.4 64.5 18.6 64.55 18.8 64.6 19 64.6 19.2 64.6 19.45 64.6 19.65 64.6 19.9 64.6 20.05 64.7 20.25 64.75 20.35 64.85 20.5 65 20.65 65.1 20.8 65.25 20.95 65.35 21.15 65.45 21.3 65.5 21.55 65.65 21.8 65.7 22 65.8 22.25 65.9 22.5 65.95 22.75 66 23.7 66.2 24.7 66.2 27.65 66.2 30.6 66.2 33.45 66.2 36.3 66.2 39.2 66.2 42.1 66.2 45 66.2 47.9 66.2 48.1 66.25 48.35 66.3 48.85 66.45 49.4 66.5 49.95 66.6 50.45 66.6 51 66.6 51.55 66.6 51.65 66.65 51.75 66.7 51.95 66.75 52.1 66.8 52.5 66.85 52.85 66.9 53.6 67 54.3 67 55 67 55.7 67 56.5 67 57.25 67 58 67 58.75 67 59.45 67 60.2 67 60.25 67 60.35 67 60.5 67 60.7 67 60.85 67 61.05 66.95 61.2 66.95 61.4 66.9 61.55 66.9 61.75 66.85 61.9 66.8 62 66.75 62.15 66.75 62.3 66.7 62.4 66.65 62.55 66.65 62.75 66.6 62.9 66.6 63.1 66.6 63.25 66.6 63.45 66.6 63.6 66.6 63.8 66.6 63.95 66.55 64.15 66.55 64.35 66.55 64.5 66.5 64.7 66.45 64.85 66.45 65.05 66.4 65.15 66.35 65.25 66.3 65.35 66.25 65.5 66.25
L 65.5 66.2
Q 65.65 66.2 65.8 66.2 65.8 67.7 65.8 69.2 65.8 73.05 65.8 76.85 65.8 81 65.8 85.15 65.8 87 65.8 88.8 65.7 89 65.6 89.25 65.4 89.8 65.4 90.4 65.4 91.3 65.4 92.2 65.4 93 65.4 93.75 65.35 94.25 65.45 94.75 65.5 95.25 65.65 95.7 65.75 95.85 65.8 96 65.8 96.15 65.8 96.3 65.8 96.45 65.8 96.55 65.8 96.7 65.8 96.85 65.8 97 65.8 97.15 65.8 97.3 65.8 97.5 65.85 97.65 65.85 97.8 65.9 97.95 65.9 98.05 65.95 98.2 66.05 98.35 66.1 98.5 66.15 98.6 66.2 98.75 66.3 98.85 66.35 99 66.45 99.1 66.5 99.25 66.6 99.35 66.7 99.45 66.8 99.55 66.9 99.65 67 99.75 67.1 99.85 67.25 99.95 67.35 100.05 67.45 100.15 67.6 100.2 67.75 100.25 67.9 100.35 68.05 100.4 68.25 100.45 68.4 100.5 68.55 100.5 68.7 100.55 68.85 100.55 69.05 100.6 69.15 100.65 69.35 100.7 69.5 100.8 69.65 100.85 69.8 100.9 69.95 100.9 70.1 100.95 70.3 101 70.45 101 70.65 101 70.75 101 70.85 101 71 101.05 71.15 101.15 71.3 101.2 71.45 101.25 71.95 101.35 72.4 101.35 73.05 101.4 73.65 101.4 74.25 101.4 74.9 101.4 75.4 101.4 75.9 101.4 76.45 101.4 76.95 101.4 77.5 101.4 78.05 101.4 78.15 101.45 78.3 101.5 78.7 101.7 79.15 101.75 79.7 101.8 80.25 101.8 80.85 101.8 81.4 101.8 81.8 101.8 82.15 101.8 82.55 101.8 82.95 101.8 83.35 101.8 83.7 101.8 83.85 101.85 84.05 101.95 85.45 102.3 86.95 102.25 89.85 102.2 92.7 102.2 95.6 102.2 98.55 102.2 101.1 102.2 103.65 102.3 106.1 102.35 108.45 101.8 108.65 101.8 108.85 101.8 109.6 101.8 110.35 101.8 111.3 101.8 112.25 101.8 113 101.8 113.75 101.75 114.35 101.75 114.9 101.65 115.45 101.55 116.05 101.4 116.2 101.4 116.4 101.4 116.75 101.4 117.1 101.4 117.25 101.4 117.4 101.35 117.6 101.35 117.75 101.35 117.9 101.35 118.05 101.3 118.2 101.3 118.4 101.3 118.55 101.25 118.7 101.25 118.85 101.2 119 101.15 119.15 101.1 119.3 101.1 119.5 101.05 119.65 101
L 120.65 101
Q 123.25 101 125.9 101 129.6 101 133.3 101 137.1 101 140.9 101 141.2 101 141.55 101 141.9 101 142.25 101 142.55 101 142.8 101 143.1 101 143.4 100.95 143.75 100.95 144.15 100.9 144.55 100.85 144.9 100.75 145.1 100.7 145.35 100.6 145.7 100.6 146.05 100.6 146.4 100.6 146.75 100.6 147.05 100.6 147.3 100.6 147.6 100.6 147.9 100.55 148.3 100.55 148.65 100.5 148.95 100.45 149.2 100.35 149.5 100.3 149.75 100.2 149.85 100.2 150 100.2 150.15 100.2 150.3 100.15 150.45 100.15 150.55 100.15 150.75 100.15 150.9 100.1 151.05 100.1 151.25 100.05 151.4 100.05 151.5 100 151.65 99.95 151.8 99.9 151.9 99.85 152.05 99.85 152.6 99.8 153.15 99.8 154.3 99.8 155.45 99.85 156.55 99.85 157.55 99.45 158.55 99 159 98.05 159.1 98 159.15 97.95 159.25 97.85 159.4 97.8 159.5 97.7 159.6 97.6 159.7 97.45 159.8 97.35 159.9 97.25 160 97.1 160.1 97.05 160.2 96.95 160.3 96.85 160.4 96.75 160.5 96.7 160.6 96.55 160.7 96.45 160.75 96.35 160.85 96.25 160.95 96.15 161 96 161.05 95.85 161.1 95.7 161.2 95.55 161.25 95.4 161.25 95.25 161.3 95.1 161.35 94.95 161.35 94.8 161.4 94.65 161.4 94.5 161.4 94.35 161.4 94.15 161.35 94 161.35 93.85 161.3 93.7 161.3 93.55 161.25 93.4 161.2 93.25 161.15 93.1 161.1 93 161.05 92.95 161.1 92.8 161.15 92.7 161.5 90.55 161.45 88.4 161.4 86.2 161.4 84 161.4 81.35 161.4 78.7 161.4 75.8 161.4 72.9 161.4 69.65 161.4 66.4 161.4 66.3 161.4 66.2 163.05 66.2 164.7 66.2 165.4 66.2 166.15 66.25 166.2 66.25 166.35 66.3 166.45 66.35 166.55 66.4 166.75 66.45 166.9 66.45 167.1 66.5 167.25 66.55 167.45 66.55 167.65 66.55 167.85 66.6 168.05 66.6 168.25 66.6 168.45 66.6 168.55 66.65 168.65 66.7 168.8 66.75 168.9 66.8 169.4 66.9 169.9 66.95 170.6 67 171.35 67 172 67 172.7 67 173.4 67 174.1 67 174.9 67 175.7 67 176.45 67 177.25 67.05 177.35 67.05 177.45 67.1 177.55 67.15 177.7 67.2 178.2 67.3 178.7 67.35 179.75 67.45 180.8 67.4 181.9 67.4 182.95 67.4 184.05 67.4 185.15 67.4 186.25 67.4 187.4 67.4 187.85 67.4 188.3 67.4 188.55 67.45 188.75 67.55 188.95 67.6 189.2 67.65 189.45 67.65 189.65 67.7 189.9 67.75 190.15 67.75 190.4 67.75 190.6 67.8 190.85 67.8 191.1 67.8 191.55 67.8 192 67.8 192.45 67.8 192.9 67.8 193.35 67.8 193.8 67.8 194.55 67.8 195.3 67.8 196.05 67.8 196.8 67.8 197.55 67.8 198.35 67.75 198.55 67.7 198.75 67.65 198.95 67.6 199.15 67.5 199.3 67.4 199.5 67.3 199.65 67.2 199.8 67.05 199.85 67.05 199.9 67 200.5 67 201.15 67 202.45 67 203.75 67 205.1 67 206.45 67.05 207.6 67.05 208.65 66.65 208.8 66.6 208.95 66.5 209.1 66.45 209.2 66.35 209.35 66.25 209.5 66.15 209.55 66.15 209.6 66.1 209.7 66 209.8 65.95 209.9 65.85 210.05 65.8 210.15 65.7 210.3 65.6 210.4 65.55 210.55 65.45 210.65 65.35 210.75 65.25 210.85 65.15 210.95 65.05 211.05 64.95 211.15 64.85 211.2 64.8 211.25 64.75 211.35 64.6 211.45 64.5 211.55 64.4 211.65 64.25 211.7 64.15 211.8 64 211.85 63.85 211.9 63.75 212 63.65 212.05 63.55 212.15 63.45 212.2 63.4 212.3 63.25 212.35 63.15 212.45 63.05 212.55 62.95 212.6 62.8 212.65 62.6 212.75 62.45 212.8 62.3 212.85 62.15 212.9 62 212.95 61.85 212.95 61.65 213 61.5 213 61.35 213 61.1 213 60.8 213 60.55 213 60.25 213 59.9 213 59.6 213 59.25 213 58.9 213 58.55 213 58.2 212.95 57.8 212.9 57.4 212.85 57.1 212.8 56.75 212.75 56.6 212.7 56.5 212.65 56.35 212.6 56.25 212.6 56.15 212.6 56 212.6 55.9 212.6 55.8 212.55 55.6 212.55 55.45 212.5 55.3 212.5 55.15 212.5 55 212.45 54.85 212.4 54.7 212.35 54.55 212.3 54.4 212.2 54.3 212.15 54.15 212.1 54 212.05 53.9 212 53.8 211.9 53.65 211.8 53.55 211.7 53.45 211.6 53.35 211.5 53.25 211.4 53.15 211.35 53.05 211.25 52.95 211.2 52.8 211.15 52.7 211.1 52.6 211 52.5 210.9 52.4 210.8 52.3 210.75 52.25 210.65 52.15 210.55 52.1 210.5 52.05 210.4 51.95 210.3 51.8 210.2 51.75 210.05 51.65 209.95 51.55 209.8 51.5 209.65 51.4 209.55 51.35 209.4 51.3 209.25 51.2 209.1 51.15 208.95 51.1 208.8 51.05 208.6 51.05 208.1 51 207.55 51 206.85 51 206.15 51 205.45 51 204.8 51 204.15 51 203.5 51 202.9 51 202.3 51.05 201.65 51.15 201.1 51.4
M 107.55 63.4
Q 105.75 63.4 104 63.4 102.6 63.4 101.15 63.4 100.35 63.4 99.55 63.4 99.5 63.3 99.45 63.25 99.4 63.1 99.3 63 101.75 62.95 104.2 62.9 108 62.8 111.6 63.25 111.7 63.35 111.8 63.4 111.75 63.4 111.65 63.4 111.35 63.4 111.05 63.4 109.3 63.4 107.55 63.4
M 84.95 70.9
Q 85 70.85 85.05 70.85 85.15 70.8 85.2 70.8 85.25 70.75 85.35 70.7 85.45 70.65 85.55 70.65 85.5 70.9 85.5 71.15
L 85.45 71.15
Q 85.4 71.15 85.3 71.1 85.2 71.1 85.1 71.05 85.05 71.05 84.95 71
L 84.9 71
Q 84.9 70.95 84.95 70.9
M 95.95 71.05
Q 96.05 70.8 96.15 70.6 96.35 70.6 96.6 70.6 96.95 70.6 97.25 70.6 97.6 70.6 97.95 70.6 98.3 70.6 98.6 70.6 98.95 70.6 99.3 70.6 99.4 70.6 99.55 70.65 99.4 70.75 99.3 70.85 99.2 70.9 99.05 71 98.95 71.1 98.85 71.2 98.75 71.25 98.65 71.35 98.55 71.4 98.45 71.5 98.35 71.65 98.25 71.8 98.1 71.95 98 72.1 97.95 72.2 97.85 72.3 97.7 72.25 97.55 72.2 97.4 72.15 97.2 72.15 97.05 72.1 96.9 72.05 96.85 72 96.8 72 96.55 71.8 96.3 71.65 96.15 71.6 96.05 71.55 95.9 71.55 95.75 71.5
L 95.7 71.5
Q 95.75 71.35 95.8 71.25 95.9 71.15 95.95 71.05
M 81.15 75.8
L 81.1 75.8
Q 81.05 75.8 81 75.8 80.95 75.8 80.9 75.8 80.85 75.8 80.8 75.8 80.75 75.8 80.7 75.8
L 80.65 75.75
Q 80.6 75.65 80.55 75.6 80.5 75.5 80.4 75.45 80.35 75.35 80.3 75.3 80.2 75.2 80.1 75.05 80 74.95 79.85 74.85 79.75 74.75 79.75 74.6 79.8 74.6 79.8 74.65 79.85 74.65 79.9 74.7 79.9 74.75 79.95 74.75 80 74.8 80 74.85 80.05 74.85 80.1 74.9 80.15 74.9 80.15 74.95 80.2 75 80.25 75 80.3 75.05 80.35 75.1 80.45 75.15 80.5 75.2 80.55 75.25 80.6 75.3 80.65 75.35 80.75 75.4 80.85 75.5 80.9 75.55 81 75.6 81.05 75.65 81.15 75.75 81.15 75.8
M 84.05 82.95
Q 83.85 82.35 83.65 81.75 83.8 81.75 83.95 81.75 84.05 81.7 84.2 81.7 84.35 81.65 84.5 81.65 84.55 81.65 84.6 81.65 84.3 82.3 84.1 83
L 84.1 83.05
Q 84.05 83 84.05 82.95
M 92.6 93
Q 92.6 92.8 92.6 92.55 93.5 93.25 94.5 93.8 94.45 93.8 94.4 93.8 94.25 93.8 94.1 93.8 93.85 93.7 93.6 93.65 93.15 93.5 92.65 93.45
L 92.6 93.45
Q 92.6 93.2 92.6 93
M 112.45 88.1
Q 112.45 88 112.45 87.9 112.55 87.95 112.6 88 112.8 88.25 113.05 88.5 113.25 88.7 113.45 88.95 113.75 89.25 114.05 89.55 114.3 89.75 114.5 90 114.7 90.15 114.9 90.35 114.85 90.4 114.75 90.45 114.65 90.5 114.6 90.55 114.55 90.55 114.45 90.55 114.3 90.6 114.15 90.6 114.05 90.6 114 90.6 113.9 90.6 113.8 90.6 113.7 90.6 113.6 90.6 113.5 90.6 113.4 90.6 113.3 90.6 113.2 90.6 113.1 90.6 113 90.6 112.9 90.6 112.8 90.6 112.7 90.6 112.6 90.6 112.55 90.6 112.45 90.6 112.4 90.55 112.3 90.45 112.25 90.4 112.2 90.35 112.2 90.25 112.2 90.15 112.2 90.05 112.2 89.95 112.2 89.85 112.2 89.75 112.2 89.65 112.2 89.55 112.2 89.45 112.2 89.35 112.2 89.25 112.2 89.15 112.2 89.05 112.2 88.95
L 112.2 88.9
Q 112.2 88.85 112.25 88.75 112.25 88.65 112.3 88.55 112.3 88.5 112.35 88.4 112.4 88.35 112.4 88.25 112.4 88.15 112.45 88.1
M 160 58.15
Q 159.8 58.2 159.65 58.35 159.45 58.45 159.3 58.55 159.25 58.6 159.15 58.6 159.05 58.6 158.9 58.6
L 158.65 58.6
Q 158.5 58.5 158.4 58.4 158.2 58.25 158.05 58.15
L 158 58.15
Q 158.25 58.1 158.5 58.1 159.25 58.05 160 58.15
M 149 66.6
Q 148.1 66.6 147.15 66.6 146.2 66.6 145.25 66.6 144.25 66.6 143.25 66.6 142.65 66.6 142.05 66.6 142.1 66.55 142.2 66.5 142.35 66.4 142.5 66.3 143.05 66.2 143.55 66.2
L 145.25 66.2
Q 146 66.2 146.7 66.2
L 148.6 66.2
Q 148.85 66.2 149.1 66.2 149.05 66.4 149 66.6
M 148.5 72.6
Q 148.85 72.6 149.15 72.6 149.5 72.6 149.8 72.55 150.25 72.5 150.15 72.7 150.15 72.8 150.1 72.8 149.95 72.95 149.8 73.1 149.7 73.25 149.55 73.35 149.4 73.45 149.25 73.6 149.1 73.7 149 73.85 148.85 74 148.75 74.15 148.7 74.05 148.65 73.95 148.55 73.8 148.5 73.65 148.4 73.5 148.3 73.35 148.15 73.2 148.05 73.1 147.9 72.95 147.75 72.85 147.6 72.7 147.4 72.6 147.65 72.6 147.85 72.6 148.15 72.6 148.5 72.6
M 125.75 69.4
Q 125.9 69.4 126.05 69.4 126.25 69.4 126.4 69.4 126.6 69.4 126.85 69.4 127.1 69.4 127.3 69.35 127.55 69.3 127.75 69.3 127.95 69.2 128.2 69.15 128.4 69.05 128.6 69 128.8 68.9 129.05 68.8 129.25 68.75 129.45 68.65 129.65 68.5 129.85 68.4 130.05 68.3 130.3 68.2 130.45 68.1 130.65 68.1 130.6 68.35 130.6 68.6 130.6 68.75 130.65 68.9 130.65 69.05 130.65 69.2 129.85 69.3 129 69.4 125.45 69.85 121.85 70.2 120.95 69.8 120.1 69.4 122.9 69.4 125.75 69.4
M 137.4 76.05
L 137.45 76.05
Q 137.55 76.15 137.7 76.25 137.65 76.25 137.6 76.25
L 137.55 76.25
Q 137.5 76.25 137.45 76.25
L 137.4 76.2
Q 137.35 76.2 137.3 76.2
L 137.2 76.2
Q 137.1515625 76.2 137.1 76.2 137.15 76.1984375 137.15 76.15 137.2 76.15 137.25 76.1 137.3 76.1 137.3 76.05 137.35 76.05 137.4 76.05
M 134.55 86.2
Q 134.45 86.2 134.35 86.2 134.15 86.25 134.2 86.1
L 134.2 86.05
Q 134.35 86.05 134.5 86.1 134.65 86.1 134.8 86.1 134.95 86.15 135.15 86.15 135.3 86.15 135.45 86.2 135.35 86.2 135.2 86.2 135.1 86.2 135 86.2 134.9 86.2 134.8 86.2 134.65 86.2 134.55 86.2
M 79.15 66.25
L 79.15 66.2
Q 79.55 66.15 79.9 66.15 80.6 66.15 81.25 66.25 81.1 66.3 80.95 66.45 80.85 66.5 80.7 66.6 80.55 66.65 80.4 66.75 80.3 66.8 80.15 66.9 80.05 67 79.9 67.05 79.8 67.15 79.65 67.2 79.55 67.3 79.45 67.4 79.4 67.4 79.35 67.45 79.35 67.3 79.3 67.15 79.25 67 79.2 66.85 79.15 66.7 79.1 66.55 79.15 66.4 79.15 66.25
M 76.5 91.95
Q 76.65 92 76.85 92.05 77 92.1 77.15 92.1 77.3 92.15 77.45 92.15 77.65 92.15 77.8 92.2 77.95 92.2 78.1 92.15 78.25 92.15 78.4 92.1 78.55 92.1 78.7 92.05 78.85 92 79 91.9 79.15 91.85 79.3 91.8 79.45 91.7 79.55 91.65 79.7 91.55 79.8 91.45 79.9 91.55 80 91.65 80.1 91.75 80.2 91.85 80.4 92.05 80.55 92.25 80.65 92.35 80.75 92.45 80.7 92.5 80.7 92.6 80.65 92.6 80.6 92.6 80.25 92.6 79.9 92.6 79.5 92.6 79.15 92.6 78.5 92.3 77.8 92.2 77.3 92.15 76.8 92.15 76.45 92.15 76.15 92.2 76.15 92.05 76.15 91.95 76.15 91.9 76.2 91.8 76.35 91.9 76.5 91.95 Z"/>
</g>
</defs>

<g transform="matrix( 1, 0, 0, 1, 0,0) ">
<use xlink:href="#Layer1_0_FILL"/>
</g>
</svg>
