
<svg xmlns="http://www.w3.org/2000/svg" version="1.1" xmlns:xlink="http://www.w3.org/1999/xlink" preserveAspectRatio="none" x="0px" y="0px" width="226px" height="226px" viewBox="0 0 226 226">
<defs>
<g id="Cartoon_Rhythms_1_Layer0_0_MEMBER_0_MEMBER_0_FILL">
<path fill="#000000" stroke="none" d="
M 328 126.85
Q 332.4 118.35 330.15 110.75 328.2 104.1 321.85 97.8 317.75 93.75 309.65 88.05 302.65 83.15 293.3 78 287.8 75 276.2 69.1 274.6 68.3 273.45 69.75 272.25 71.15 273.6 72.45 277.6 76.3 281.55 82.15 284.2 86.1 288 92.9 290.05 96.5 291 99.05 292.3 102.5 292.35 105.7 292.5 110 290.3 113.6 288.85 116 284.95 119.85 275.8 128.9 284 139.55 288.75 145.7 296.1 154.15 299.21875 157.7142578125 304.6 163.85 298.016796875 162.76640625 291.7 165 281.6 168.55 280.45 178.75 279.85 183.95 281.8 190.85 282.6 193.8 285.8 202.5 290.4712890625 215.0013671875 295.25 223.95 295.4173828125 225.0390625 295.6 226.15 295.85 227.4 297.25 227.2 298.7 227 298.6 225.7 297.75 215.7 298.3 208.05 299.05 198.5 302 190.85 305.55 181.7 315 179.2 322.55 177.25 333.2 179.65 334.7 180 335.4 178.75 336.1 177.5 335.15 176.35 326.55 165.45 322.2 160.05 320.2 157.75 319.25 156.55 317.5 154.4 316.75 152.7 315.5 149.85 316.3 146.65 316.9 144.25 318.9 141 319.75 139.65 323.55 134 326.5 129.7 328 126.85
M 290.4 81.25
Q 299.35 86.1 306.1 90.7 317.05 98.2 321.55 103.75 328.9 112.85 325.7 122.2 324.7 125.2 321.9 129.2 318.5 133.85 316.9 136.2 310.85 144.85 312.05 151.25 312.6 154.2 314.95 157.5 315 157.55 319.35 162.9 322.7830078125 167.16171875 328.85 174.8 321.6427734375 173.82109375 315.8 174.85 305.65 176.7 300.75 184.55 295.7 192.6 294.65 204.85 294.09921875 210.9994140625 294.55 217.6 292.065625 211.507421875 290.55 207.75 286.35 197.3 284.55 189.55 283.1 183.1 283.8 178.7 284.7 172.9 289.3 169.8 293.55 166.95 299.2 166.9 304.2 166.8 309.45 168.9 310.75 169.4 311.4 168.1 312 166.85 311.2 165.9 302.95 156.4 298.85 151.6 291.6 143.1 287.05 136.9 285.05 134.15 284.4 132 283.5 129.1 284.75 126.6 285.5 125.15 287.15 123.55 288.1 122.65 290 120.95 295.1 116.1 296.3 110.5 297.4 105.2 295.6 99.4 294.25 95.05 290.8 89.15 286.95 82.5 284.4 78.8 283.999609375 78.217578125 283.6 77.65 287.6953125 79.7724609375 290.4 81.25 Z"/>
</g>

<g id="Cartoon_Rhythms_1_Layer0_0_MEMBER_1_MEMBER_0_FILL">
<path fill="#000000" stroke="none" d="
M 325.1 119.05
Q 325.7744140625 114.48984375 324.75 109.85 323.05 102.05 316.75 96.45 311.9841796875 92.187890625 306.1 90.5 300.3685546875 85.6794921875 290.9 78.9 289.6865234375 78.0505859375 288.6 78.8
L 285.95 74.7
Q 285.3 73.65 284.25 74.3 283.15 74.9 283.75 75.95 284.4830078125 77.2578125 285.15 78.5 284.3822265625 78.384375 283.55 79.05 282.05 80.25 282.95 81.9 288.5859375 92.56640625 297.25 101.15 295.1 101.15 295.05 103.3 294.9009765625 111.52109375 291.55 118.5 289.2177734375 119.755078125 287.65 121.8 285.35 124.75 284.95 128.95 284.8595703125 130.2173828125 286.05 130.8 285.478125 131.730078125 285.75 132.55 285.7265625 133.0138671875 285.95 133.55 287.8119140625 138.123828125 290.55 141.9 296.8271484375 151.6466796875 306 159.05 307.0525390625 159.8857421875 308.05 159.6 308.4859375 160.516015625 309 161.45 308.966015625 161.53671875 308.9 161.6 307.65 162.8 308.55 164.3 309.765625 166.30859375 311.15 168.1 309.1697265625 168.1962890625 307.2 168.45 305.349609375 166.0689453125 301.15 165.95 296.65 165.85 292.95 167.95 281.75 174.4 284.45 190 285.95 198.7 292.25 214.75 292.9 216.5 294.65 216.05 296.4 215.55 296 213.7 294.9798828125 210.817578125 294.35 207.9 293.6095703125 204.54921875 293.35 201.15 294.610546875 200.9904296875 294.8 199.55 295.9 191.55 300.05 184.95 301.2291015625 183.0830078125 302.6 181.4 302.717578125 181.277734375 302.8 181.15 303.00703125 181.0146484375 303.2 180.85 306.265234375 178.6822265625 309.9 177.5 316.1 175.45 322.65 176.85 324.3 177.2 325.1 175.8 325.6822265625 174.817578125 325.25 173.85
L 325.7 174.1
Q 327.35 175.05 328.45 173.55 329.55 172.1 328.35 170.65
L 315.55 155.6
Q 315.24609375 155.2380859375 314.9 155.05
L 315.35 140.9
Q 316.4134765625 138.791796875 318.05 136.4 319.2427734375 134.6595703125 320.15 133.1 322.5322265625 129.921875 323.65 127.5 325.6205078125 123.1576171875 325.1 119.05
M 312.75 107.8
Q 310.7 107.5 310.3 109.35
L 310.3 109.35
Q 309.16796875 105.6298828125 307.1 102.4 307.4736328125 102.0291015625 307.65 101.6
L 313.3 107.75
Q 313.11796875 107.7779296875 312.9 107.8 312.833203125 107.81015625 312.75 107.8
M 306.65 117.05
Q 306.963671875 118.5787109375 307.1 119.9 307.2443359375 121.3712890625 307.2 122.75 307.1107421875 124.1650390625 306.9 125.75 306.78046875 125.2798828125 306.55 124.9 306.8388671875 122.9705078125 306.85 120.85 306.8634765625 119.098828125 306.65 117.05
M 299.5 102.95
Q 299.608984375 102.984375 299.7 103
L 298.2 103
Q 298.2103515625 102.53984375 298.3 102.15 298.429296875 102.285546875 298.55 102.4 299.024609375 102.821875 299.5 102.95
M 297.45 126.25
L 296.95 125.25
Q 297.2158203125 124.9046875 297.45 124.5 297.492578125 124.455859375 297.5 124.35
L 297.45 126.25
M 292.85 132.5
Q 292.9513671875 132.1958984375 293.25 131.65 293.791796875 135.5138671875 294.9 139.15 293.9580078125 137.8498046875 293.45 136.8 292.3 134.3 292.85 132.5
M 312.3 137.55
Q 312.2236328125 137.6099609375 312.1 137.65
L 312.15 137.35
Q 312.2736328125 137.4138671875 312.4 137.45 312.3607421875 137.516015625 312.3 137.55
M 297.5 178.55
Q 297.665234375 178.5322265625 297.8 178.5 298.583203125 178.3080078125 299.6 177.95 298.069921875 179.17734375 296.65 180.6 297.07421875 179.5783203125 297.5 178.55
M 289.3 191.95
Q 289.3896484375 191.9275390625 289.45 191.9 289.4421875 192.201953125 289.4 192.5 289.3595703125 192.2201171875 289.3 191.95 Z"/>
</g>
</defs>

<g transform="matrix( 0.4933319091796875, 0, 0, 0.4933319091796875, 108.35,113.05) ">
<g transform="matrix( 2.513702392578125, 0, 0, 2.513702392578125, -758,-371) ">
<use xlink:href="#Cartoon_Rhythms_1_Layer0_0_MEMBER_0_MEMBER_0_FILL"/>
</g>

<g transform="matrix( 2.513702392578125, 0, 0, 2.513702392578125, -758,-371) ">
<use xlink:href="#Cartoon_Rhythms_1_Layer0_0_MEMBER_1_MEMBER_0_FILL"/>
</g>
</g>
</svg>
