
<svg xmlns="http://www.w3.org/2000/svg" version="1.1" xmlns:xlink="http://www.w3.org/1999/xlink" preserveAspectRatio="none" x="0px" y="0px" width="226px" height="226px" viewBox="0 0 226 226">
<defs>
<g id="Layer1_0_FILL">
<path fill="#000000" stroke="none" d="
M 200.35 30.1
Q 196.85 30.1 196.7 34.2 195.4 72.15 195 94.1 194.6064453125 115.8171875 194.65 134.85 192.696875 132.5173828125 189.9 131 184.8 128.3 177.9 128.55 172.95 128.8 165.75 130.8 152.5 134.55 141.65 142.65 129.2 151.95 123.55 164.4 117.85 177 121.6 189.2 125.5 201.8 137.1 205.7 148.65 209.6 161.7 206.1 174.15 202.75 184.1 193.95 196.2 183.15 200.5 168.7 202.222265625 163.019921875 202.35 157.2 203.1841796875 156.0876953125 203.25 154.05 205.1 93.55 203.95 34.2 203.9 30.1 200.35 30.1
M 172.3 135.2
Q 175.4888671875 134.583984375 178.35 134.5 176.6693359375 135.0888671875 174.9 136.1 176.9 136.2 178.85 136.65 179.3 136.8 179.6 137.05 181.05 137.25 182.5 137.55 181.25 137.75 180.1 138.05 180 137.45 179.6 137.05 177.5 136.85 175.45 136.85 175.05 136.5 174.6 136.25 174.75 136.2 174.9 136.1 174.55 136.05 174.3 136.05 173.2251953125 135.4796875 171.95 135.25 172.1291015625 135.2322265625 172.3 135.2
M 189.75 137.2
Q 189.5837890625 137.0150390625 189.4 136.85 189.7533203125 137.0255859375 190.05 137.2 189.919921875 137.20859375 189.75 137.2
M 196.45 158
Q 196.6994140625 158.1970703125 196.95 158.3 196.8072265625 160.6005859375 196.35 162.85 196.3146484375 161.9814453125 196.05 161.25 196.2 160.05 196.3 159 196.39375 158.521875 196.45 158
M 185.85 154.1
Q 185.6 155.3 184.55 157.8 184.1 159 183.6 160.2 183.7 159.65 183.85 159.15 184.4 157.05 184.5 155.1 185.4 154.35 185.85 154.1
M 193.35 172.15
Q 193.4646484375 171.934765625 193.55 171.7 193.6314453125 171.55390625 193.7 171.4 193.6802734375 171.4802734375 193.65 171.55 193.5166015625 171.8587890625 193.35 172.15
M 175.2 152.95
Q 174.8 153.25 174.35 153.6 174.5 153.6 174.7 153.6
L 172.5 155.6
Q 173 155 173.45 154.45 173.9 154.05 174.35 153.6 174.15 153.6 174 153.7 173.85 153.7 173.75 153.75 173.95 153.6 174.1 153.5 174.6 153.2 175.2 152.95
M 177.5 180.65
Q 177.65 180.95 177.85 181.2 176.2 182.45 174.4 183.5 175.95 182 177.5 180.65
M 163.2 194.6
Q 163.65 194.3 163.95 194.05 165.35 193.85 166.75 193.55 165 194.2 163.2 194.6
M 184.5 174.6
Q 184.2 174.95 183.9 175.3 183.65 175.6 183.35 175.95 183.3 175.75 183.3 175.55 183.85 175.15 184.3 174.7 184.4 174.65 184.5 174.6
M 164.85 171.15
Q 163.75 173.65 162.9 176.2 161.7 176.85 160.6 177.4 158.55 178.35 157.9 177.65
L 164.85 171.15
M 151.3 144.5
Q 150.929296875 144.0365234375 150.45 143.8 154.71875 141.1865234375 159.1 139.25 157.56171875 140.325 156 141.65 154.2 142.65 152.25 143.85 151.75 144.15 151.3 144.5
M 150.55 157.2
Q 148 159.85 145.1 163.25 147.85 159.2 150.55 157.2
M 157.45 150.3
Q 157.1 149.85 156.6 149.55 158.9 147.85 161.45 146.6 159.45 148.15 157.45 150.3
M 132.35 170.4
Q 132.7 169.7 133 168.95 133.15 168.85 133.3 168.8
L 133.75 169.5
Q 133.05 170.15 132.35 170.4
M 134.8 168.6
Q 135.25 168.2 135.7 167.7 135.45 168.25 135.25 168.8 135 168.65 134.8 168.6
M 138.65 175.95
Q 139.2 176.65 140.2 176.7 138.65 179.8 137.2 183.2 136.9 183.35 136.6 183.5 136.65 183.45 136.65 183.35 137.25 180.95 137.4 180.2 137.95 178.05 138.65 175.95
M 126.65 188.9
Q 127.11484375 188.790234375 127.55 188.5 127.9 188.25 128.25 188 129.3 191.45 131.65 194.2 136.6 199.95 144.2 200.55 144.6 200.6 145.1 200.6 146.642578125 201.0681640625 148.2 201.4 134.043359375 201.1548828125 128.5 192.4 127.4193359375 190.6736328125 126.65 188.9
M 96.65 30.1
Q 93.15 30.1 93 34.2 91.7 72.15 91.3 94.1 90.90625 115.8224609375 90.95 134.85 88.996875 132.5376953125 86.2 131.05 81.1 128.35 74.2 128.55 69.2 128.8 62.05 130.8 48.8 134.55 37.95 142.65 25.45 151.95 19.85 164.4 14.15 177 17.9 189.2 21.75 201.8 33.4 205.7 44.95 209.6 58 206.1 70.45 202.75 80.4 193.95 92.5 183.15 96.8 168.7 98.481640625 163.0333984375 98.65 157.25 99.4833984375 156.1125 99.55 154.05 101.4 93.55 100.25 34.2 100.2 30.1 96.65 30.1
M 55.6 139.15
L 55.6 139.2
Q 53.95 140.25 52.3 141.65 50.5 142.65 48.55 143.85 48.05 144.15 47.6 144.5 47.21875 144.042578125 46.75 143.8 51.113671875 141.125 55.6 139.15
M 74.65 134.5
Q 72.947265625 135.0890625 71.15 136.1 73.2 136.2 75.15 136.65 75.6 136.8 75.9 137.1 77.35 137.25 78.8 137.55 77.55 137.75 76.35 138.05 76.25 137.45 75.9 137.1 73.8 136.85 71.75 136.85 71.35 136.5 70.9 136.25 71 136.2 71.15 136.1 70.85 136.05 70.6 136.05 69.525 135.4796875 68.25 135.25 68.4287109375 135.232421875 68.6 135.2 71.7833984375 134.5849609375 74.65 134.5
M 31.1 168.6
Q 31.55 168.2 32 167.7 31.75 168.25 31.55 168.8 31.3 168.65 31.1 168.6
M 30.05 169.5
Q 29.35 170.15 28.65 170.4 28.95 169.7 29.3 168.95 29.45 168.85 29.6 168.8
L 30.05 169.5
M 32.9 183.55
Q 32.95 183.45 32.95 183.35 33.55 180.95 33.7 180.25 34.2 178.05 34.95 175.95 35.5 176.65 36.5 176.7 34.95 179.8 33.5 183.25 33.2 183.35 32.9 183.55
M 23.85 188.5
Q 24.2 188.25 24.55 188 25.55 191.45 27.95 194.2 32.9 199.95 40.5 200.55 40.9 200.6 41.4 200.6 43.0439453125 201.098828125 44.7 201.4 30.3837890625 201.21875 24.8 192.4 23.7193359375 190.6736328125 22.95 188.9 23.41484375 188.790234375 23.85 188.5
M 79.85 160.2
Q 79.95 159.65 80.15 159.15 80.7 157.05 80.8 155.1 81.65 154.35 82.15 154.1 81.9 155.3 80.85 157.8 80.4 159 79.85 160.2
M 70.65 153.6
Q 70.45 153.6 70.3 153.7 70.15 153.7 70.05 153.75 70.25 153.6 70.4 153.5 70.9 153.2 71.5 152.95 71.05 153.25 70.65 153.6 70.8 153.6 70.95 153.6
L 68.8 155.6
Q 69.25 155 69.75 154.45 70.2 154.05 70.65 153.6
M 41.4 163.25
Q 44.15 159.2 46.85 157.2 44.3 159.85 41.4 163.25
M 53.75 150.3
Q 53.35 149.85 52.9 149.55 55.15 147.85 57.75 146.6 55.75 148.15 53.75 150.3
M 59.5 194.6
Q 59.95 194.3 60.25 194.05 61.65 193.85 63.05 193.55 61.3 194.2 59.5 194.6
M 56.85 177.4
Q 54.85 178.35 54.2 177.65
L 61.15 171.2
Q 60.05 173.65 59.2 176.2 58 176.85 56.85 177.4
M 74.15 181.2
Q 72.5 182.45 70.7 183.55 72.25 182.05 73.8 180.65 73.95 180.95 74.15 181.2
M 80.8 174.6
Q 80.5 174.95 80.2 175.3 79.9 175.6 79.65 175.95 79.6 175.75 79.6 175.55 80.15 175.15 80.6 174.7 80.7 174.65 80.8 174.6
M 86.05 137.2
Q 85.8978515625 137.0306640625 85.75 136.85 86.0533203125 137.041796875 86.35 137.2 86.201953125 137.2076171875 86.05 137.2
M 92.6 159
Q 92.69375 158.521875 92.75 158 92.9994140625 158.1970703125 93.25 158.3 93.1076171875 160.61875 92.65 162.85 92.615625 161.9998046875 92.35 161.25 92.5 160.05 92.6 159
M 89.65 172.15
Q 89.7646484375 171.934765625 89.85 171.7 89.9322265625 171.5525390625 90 171.4 89.9810546875 171.4791015625 89.95 171.55 89.8166015625 171.8587890625 89.65 172.15 Z"/>
</g>

<g id="Cartoon_Rhythms_0_Layer0_0_MEMBER_0_MEMBER_0_FILL">
<path fill="#000000" stroke="none" d="
M 941.1 49.6
Q 937.7 49.6 937.55 53 936.3 84.7 935.9 103 935.3 130.6 935.75 153 935.85 156.95 939.8 156.9 943.75 156.9 943.9 153 945.7 102.55 944.6 53 944.55 49.6 941.1 49.6 Z"/>
</g>

<g id="Cartoon_Rhythms_0_Layer0_0_MEMBER_1_MEMBER_0_FILL">
<path fill="#000000" stroke="none" d="
M 864.6 182.35
Q 868.35 192.85 879.65 196.1 890.85 199.35 903.55 196.45 915.65 193.65 925.3 186.3 937.05 177.3 941.25 165.25 943.5 158.75 942.95 152.15 942.3375 144.8462890625 938.25 140.85 938.0509765625 140.409375 937.8 139.95 935.5 135.9 930.95 133.8 926 131.55 919.3 131.75 914.45 131.95 907.5 133.6 894.6 136.75 884.05 143.5 871.95 151.25 866.5 161.65 860.95 172.15 864.6 182.35
M 871.3 185
Q 863.8 174.75 872.1 162.2 878.55 152.5 890.45 145.7 901.5 139.3 913.85 137.3 922.4 135.85 928.7 137.95 933.5509765625 139.596875 935.7 143.15 936.2056640625 145.2064453125 937.05 148.4 937.95 152.2 937.9 155.1 937.7 161.5 934.6 167.6 929.35 178.05 918.25 184.85 907.15 191.75 894.35 192.45 877.4 193.3 871.3 185 Z"/>
</g>

<g id="Cartoon_Rhythms_0_Layer0_0_MEMBER_2_MEMBER_0_FILL">
<path fill="#000000" stroke="none" d="
M 867.55 181.75
Q 869.05 182.5 870.35 181.75 870.6875 181.5552734375 871 181.35 872.054296875 184.204296875 874.35 186.5 879.15 191.3 886.55 191.8 886.97421875 191.8259765625 887.4 191.85 894.4521484375 193.697265625 902.25 192.9 918.1 191.3 928.3 179.55 932.1 175.15 933.45 170.4 933.58515625 169.921484375 933.65 169.45 934.1138671875 168.6326171875 934.5 167.7 935.891796875 165.57265625 936.5 164.1 937.7470703125 161 936.9 158.95 937.0455078125 158.02109375 937.1 157.15 937.6482421875 155.0033203125 937.35 152.45 937.2130859375 151.3025390625 936.9 150.1 937.3384765625 150.046875 937.75 149.8 938.8 149.2 939.05 148.15 941.3646484375 139.4220703125 930.8 138.9 927.3662109375 135.6501953125 922.3 136.2 919.4732421875 136.5359375 916.35 138 918.3171875 138.105078125 920.2 138.5 920.66953125 138.6005859375 920.95 138.85 922.347265625 138.9873046875 923.75 139.2 922.551953125 139.3888671875 921.35 139.6 921.290234375 139.1365234375 920.95 138.85 918.916015625 138.6435546875 916.9 138.65 916.502734375 138.36875 916.05 138.15 916.212109375 138.0830078125 916.35 138 916.0625 138.0060546875 915.75 138 913.405078125 136.9005859375 910.05 137.35 906 137.9 901.2 140.6 899.602734375 141.5005859375 898 142.65 896.2287109375 143.4873046875 894.35 144.5 893.883984375 144.7544921875 893.4 145 892.23515625 143.8197265625 890.4 144.65 880.05 149.25 873.5 158.7 867.05 168 866.2 179.35 866.05 180.9 867.55 181.75
M 881.1 171.3
Q 881.7193359375 171.825 882.6 171.9 881.16953125 174.4912109375 879.7 177.3 879.441796875 177.459375 879.15 177.6 879.1796875 177.5251953125 879.2 177.45 879.8 175.45 879.95 174.85 880.4517578125 173.0369140625 881.1 171.3
M 877.35 165.15
Q 877.83046875 164.7845703125 878.25 164.4 878.04921875 164.840234375 877.8 165.25 877.6 165.1861328125 877.35 165.15
M 876.4 165.9
Q 875.716015625 166.43203125 875.05 166.6 875.3361328125 166.0357421875 875.65 165.45 875.7986328125 165.3701171875 875.95 165.3
L 876.4 165.9
M 924.75 158.1
Q 924.918359375 157.688671875 925.05 157.25 925.5814453125 155.5228515625 925.65 153.9 926.5603515625 153.25 926.95 153.05 926.7513671875 154.05625 925.75 156.15 925.3072265625 157.1498046875 924.75 158.1
M 915.85 152.65
Q 915.6578125 152.6677734375 915.45 152.7 915.3607421875 152.7150390625 915.25 152.7 915.4263671875 152.6361328125 915.6 152.55 916.1103515625 152.3025390625 916.6 152.05 916.2345703125 152.3671875 915.85 152.65 916.0046875 152.6345703125 916.15 152.6
L 914.05 154.3
Q 914.5087890625 153.792578125 914.9 153.3 915.3859375 152.987890625 915.85 152.65
M 925.65 170.1
Q 925.3900390625 170.441796875 925.1 170.75 924.8505859375 171.01171875 924.6 171.25 924.570703125 171.1140625 924.55 170.9 925.030078125 170.57734375 925.5 170.25 925.5857421875 170.190625 925.65 170.1
M 899.85 172.65
L 906.55 167.3
Q 905.5408203125 169.3333984375 904.65 171.5 903.5654296875 172.0646484375 902.45 172.5 900.4787109375 173.309375 899.85 172.65
M 899.4 149.9
Q 899.0302734375 149.5220703125 898.55 149.25 900.79140625 147.86796875 903.25 146.75 901.36875 148.1240234375 899.4 149.9
M 905 186.85
Q 905.4369140625 186.601953125 905.75 186.4 907.0998046875 186.206640625 908.4 185.9 906.7345703125 186.4826171875 905 186.85
M 918.85 175.15
Q 919.0435546875 175.428125 919.2 175.65 917.631640625 176.6984375 915.9 177.55 917.4017578125 176.3357421875 918.85 175.15
M 892.7 155.6
Q 890.240234375 157.8494140625 887.35 160.7 890.104296875 157.2806640625 892.7 155.6 Z"/>
</g>

<g id="Layer0_0_FILL">
<path fill="#000000" stroke="none" d="
M 203.05 32
Q 203.05 30.7 202.65 29.5 202.55 29.3 202.45 29.1 202.35 28.95 202.2 28.75 202.05 28.6 201.9 28.4 201.75 28.25 201.6 28.15 201.4 28 201.25 27.9 201.05 27.8 200.9 27.7 200.7 27.65 200.5 27.55 200.3 27.5 200.1 27.5 199.9 27.45 199.7 27.45 199.45 27.4 199.25 27.4 199.05 27.4 198.85 27.4 198.65 27.4 198.45 27.4 198.2 27.4 198 27.4 197.8 27.4 197.6 27.4 197.4 27.4 197.15 27.4 196.9 27.4 196.7 27.4 196.45 27.4 196.2 27.4 196.1 27.3 195.95 27.2 195.8 27.1 195.65 27 195.55 26.95 195.45 26.85 195.25 26.7 195.1 26.55 194.95 26.45 194.75 26.35 194.55 26.25 194.35 26.1 194.1 26.05 193.85 25.95 193.75 25.85 193.6 25.75 193.45 25.65 193.3 25.55 193.05 25.4 192.8 25.3 192.6 25.2 192.35 25.1 192.1 25.05 191.85 25 191.15 25 190.4 25 189.7 25 189 25 188.1 25 187.2 25 186.35 25 185.5 25 184.7 25 183.9 25 183.25 25 182.55 25 181.85 25 181.1 25.15 180.9 25.2 180.65 25.3 180.45 25.35 180.25 25.4 180.1 25.5 179.9 25.6 179.75 25.7 179.6 25.8 179.35 25.8 179.1 25.8 178.85 25.8 178.55 25.8 178.35 25.8 178.15 25.8 177.95 25.8 177.75 25.8 177.55 25.85 177.35 25.85 177.1 25.9 176.9 25.9 176.7 25.95 176.45 26 176.25 26.05 176.05 26.15 175.85 26.25 175.65 26.35 175.45 26.45 175.25 26.6 175.1 26.6 174.9 26.6 174.75 26.6 174.6 26.6 174.35 26.6 174.05 26.65 173.8 26.65 173.55 26.65 173.3 26.7 173.05 26.75 172.8 26.8 172.55 26.85 172.35 26.9 172.2 26.95 172.05 27 171.85 27.05 171.65 27.1 171.5 27.2 171.35 27.25 171.2 27.35 171.2 27.4 171.15 27.4 170.9 27.4 170.65 27.4 170.45 27.4 170.2 27.4 169.95 27.4 169.65 27.4 169.4 27.4 169.1 27.4 168.85 27.45 168.55 27.45 168.3 27.45 168 27.45 167.75 27.5 167.45 27.55 167.2 27.6 166.95 27.65 166.7 27.7 166.5 27.8 166.3 27.85 166.05 27.95 165.85 28.05 165.65 28.15 165.6 28.2 165.55 28.2 165.1 28.2 164.65 28.2 163.9 28.2 163.15 28.2 162.25 28.2 161.4 28.2 160.55 28.2 159.7 28.2 159 28.2 158.3 28.3 157.6 28.35 156.95 28.6 156.4 28.75 155.95 29 152.65 29 149.35 29 146.1 29 142.8 29 139.55 29 136.35 29 132.9 29 129.45 29 126.5 29 123.5 29 123.25 28.85 123.05 28.7 122.85 28.6 122.6 28.5 122.4 28.4 122.15 28.3 121.9 28.25 121.7 28.2 120.7 28.2 119.75 28.2 117.9 28.2 116.05 28.2 113.65 28.2 111.3 28.2 108.95 28.2 106.6 28.2 104.6 28.2 102.55 28.15 101.05 28.15 99.55 28.45 99.3 28.5 99.1 28.6 98.9 28.7 98.7 28.8 98.5 28.9 98.35 29 98.05 29.05 97.8 29.05 97.5 29.05 97.25 29.05 96.95 29 96.7 29 96.45 29 96.15 29 96.1 29 96 29 95.85 29 95.65 29 95.45 29 95.25 29.05 95.05 29.05 94.85 29.1 94.7 29.15 94.5 29.25 94.35 29.35 94.15 29.4 94 29.5 93.85 29.65 93.7 29.75 93.55 29.9 93.4 30.05 93.3 30.2 93.2 30.35 93.05 30.5 93 30.65 92.9 30.85 92.85 31.05 92.75 31.2 92.75 31.4 92.7 31.6 92.65 31.8 92.65 32 92.65 32.2 92.7 32.4 92.75 32.6 92.75 32.8 92.85 32.95 92.9 33.15 93 33.35 93.05 33.5 93.2 33.65 93.3 33.8 93.4 33.95 93.55 34.1 93.7 34.25 93.85 34.35 94 34.5 94.15 34.6 94.35 34.65 94.5 34.75 94.7 34.85 94.85 34.9 95.05 34.95 95.25 34.95 95.45 35 95.65 35 95.85 35 96 35 96.25 35 96.45 35 96.7 35 96.95 35 97.2 35 97.4 35 97.6013671875 35 97.8 35 97.7263671875 35.0853515625 97.65 35.2 97.6 35.3 97.5 35.45 97.45 35.6 97.4 35.75 97.35 35.9 97.3 36.05 97.25 36.15 97.2 36.3 97.2 36.45 97.2 36.6 97.2 36.75 97.2 36.9 97.2 37.05 97.2 37.2 97.2 37.35 97.25 37.5 97.3 37.65 97.35 37.8 97.4 37.95 97.45 38.05 97.5 38.2 97.6 38.35 97.65 38.45 97.75 38.6 97.85 38.7 97.95 38.85 98.05 38.95 98.15 39.05 98.3 39.15 98.4 39.25 98.55 39.35 98.65 39.4 98.75 39.5 98.9 39.55 99 39.6 99.1 39.7 99.2 39.75 99.35 39.85 99.45 39.9 99.6 39.95 99.7 40 99.85 40.05 100 40.1 100.15 40.15 100.3 40.15 100.4 40.2 100.4662109375 40.233203125 100.5 40.25 99.509375 41.709375 99.8 43.55 99.75 43.85 99.65 44.15 99.6 44.45 99.5 44.75 99.4 45.1 99.3 45.5 99.2 45.85 99.1 46.2 98.95 46.6 98.85 47 98.75 47.35 98.65 47.75 98.6 47.9 98.55 48.05 98.5 48.2 98.45 48.35 98.4 48.5 98.35 48.65 98.35 48.8 98.3 48.95 98.3 49.1 98.25 49.25 98.25 49.4 98.25 49.55 98.1 49.85 98.05 50.15 97.85 50.75 97.8 51.4 97.8 52.05 97.8 52.7 97.8 53.35 97.8 54 97.8 54.6 97.8 55.25 97.85 55.9 97.95 56.55 98.05 56.7 98.1 56.85 98.15 57 98.2 57.1 98.2 57.3 98.2 57.45 98.2 57.6 98.25 57.8 98.25 57.95 98.3 58.1 98.3 58.25 98.35 58.45 98.35 58.55 98.4 58.7 98.45 58.8 98.5 58.95 98.55 59.05 98.6 59.2
L 98.6 59.25
Q 98.6 59.4 98.6 59.55 98.65 59.75 98.7 59.9 98.7 60.05 98.75 60.25 98.65 60.3 98.55 60.4 98.4 60.5 98.3 60.6 98.2 60.65 98.1 60.75 98 60.85 97.9 60.95 97.75 61.1 97.65 61.35 97.5 61.55 97.4 61.75 97.35 62 97.3 62.25 97.25 62.5 97.2 62.75 97.2 63 97.25 63.25 97.25 63.5 97.35 63.75 97.4 64 97.5 64.2 97.65 64.45 97.8 64.65 97.929296875 64.827734375 98.05 65 97.83203125 65 97.6 65 97.3 65 97 65 96.75 65.05 96.45 65.1 96.2 65.2 96 65.3 95.75 65.4 95.5 65.55 95.35 65.65 95.2 65.75 95.05 65.85 94.9 65.95 94.8 66.1 94.65 66.25 94.55 66.4 94.45 66.55 94.4 66.7 94.3 66.85 94.25 67 94.15 67.2 94.1 67.35 94.1 67.55 94.05 67.7 94.05 67.9 94.05 68.1 94.05 68.25 94.05 68.45 94.05 68.6 94.1 68.8 94.15 69 94.2 69.15 94.25 69.3 94.35 69.5 94.4 69.65 94.55 69.8 94.65 70 94.8 70.15 94.9 70.3
L 94.95 70.3
Q 94.5537109375 71.1630859375 94.8 72.35 94.990234375 73.2634765625 95.65 73.8 95.4365234375 73.8 95.2 73.8 95 73.8 94.8 73.85 94.6 73.85 94.4 73.9 94.2 73.95 94.05 74.05 93.85 74.15 93.7 74.2 93.55 74.3 93.4 74.45 93.25 74.55 93.1 74.7 92.95 74.85 92.85 75 92.7 75.15 92.6 75.3 92.55 75.45 92.45 75.65 92.35 75.8 92.3 76 92.25 76.2 92.25 76.4 92.2 76.6 92.2 76.8 92.2 77 92.25 77.2 92.25 77.4 92.3 77.6 92.35 77.75 92.45 77.95 92.55 78.15 92.6 78.3 92.7 78.45 92.85 78.6 92.95 78.75 93.1 78.9 93.25 79.05 93.4 79.15 93.55 79.3 93.7 79.4 93.85 79.45 94.05 79.55 94.2 79.65 94.4 79.7 94.6 79.75 94.8 79.75 95 79.8 95.2 79.8 95.45 79.8 95.7 79.8 95.95 79.8 96.2 79.8 96.45 79.8 96.7 79.8 96.95 79.8 97.25 79.8 97.5 79.8 97.75 79.8 98 79.8 98.3 79.8 98.55 79.8 98.8 79.8 99 79.8 99.25 79.75 99.45 79.75 99.65 79.7 99.9 79.65 100.1 79.6 100.3 79.55 100.55 79.5 100.8 79.45 101.05 79.35 101.3 79.2 101.55 79.1 101.65 79.1 101.7 79.05 102 79.05 102.3 79.05 102.9 79 103.5 79 104.05 79 104.6 78.95 105.15 78.9 105.65 78.8 106.15 78.7 106.6 78.5 106.95 78.4 107.35 78.25 107.85 78.25 108.35 78.2 108.85 78.2 109.35 78.2 109.8 78.2 110.2 78.2 110.7 78.2 111.15 78.2 111.65 78.2 112.2 78.15 112.6 78.15 113.05 78.1 113.25 78.05 113.45 77.95 113.65 77.9 113.85 77.8 114 77.7 114.15 77.65 114.3 77.55 114.45 77.45 114.7 77.4 114.95 77.4 116 77.4 117.1 77.4 118.1 77.4 119.15 77.4 120.35 77.4 121.55 77.35 122.4 77.3 123.2 76.95 123.65 76.75 124.15 76.65 126.45 76.5 128.8 76.55 131.75 76.6 134.7 76.6 137.4 76.6 140.15 76.5 142.45 76.45 144.65 76.7 144.85 76.8 145.05 76.9 145.25 76.95 145.45 77.05 145.65 77.1 145.85 77.2 146.1 77.25 146.4 77.25 146.65 77.3 146.9 77.35 147.15 77.35 147.4 77.35 147.65 77.4 147.95 77.4 148.2 77.4 148.45 77.4 148.65 77.5 148.85 77.6 149.65 77.95 150.55 78.05 151.55 78.2 152.5 78.2 153.5 78.2 154.5 78.2 155.5 78.2 156.5 78.15 157.1 78.1 157.6 78.25 157.8 78.35 158 78.45 158.15 78.5 158.35 78.6 158.55 78.7 158.75 78.75 158.95 78.8 159.15 78.9 160 79 160.85 79 161.9 79 162.9 79 164.2 79 165.5 79 166.55 79.05 167.55 78.75 168.25 78.55 168.9 78.25 169.1 78.2 169.35 78.2 169.6 78.2 169.85 78.2 170.05 78.15 170.3 78.1 170.5 78.05 170.7 77.95 170.9 77.9 171.1 77.8 171.3 77.75 171.5 77.65 171.65 77.5 171.85 77.4 174.8 77.35 177.8 77.4 180.9 77.4 184 77.4 187.75 77.4 191.5 77.4 194.9 77.4 198.3 77.35 198.5 77.35 198.7 77.3 198.9 77.25 199.1 77.15 199.25 77.05 199.4 77 199.6 76.9 199.75 76.75 199.9 76.65 200.05 76.5 200.15 76.35 200.3 76.2 200.4 76.05 200.5 75.9 200.6 75.75 200.7 75.55 200.75 75.35 200.8 75.2 200.85 75 200.9 74.8 200.9 74.6 200.9 74.4 200.9 74.2 200.9 74 200.85 73.8 200.8 73.6 200.75 73.4 200.7 73.25 200.6 73.05 200.5 72.9 200.4 72.75 200.3 72.6 200.15 72.45 200.05 72.3 199.9 72.15 199.75 72.05 199.6 71.9 199.4 71.8 199.25 71.75 199.1 71.65 198.9 71.55 198.7 71.5 198.5 71.45 198.3 71.45 197.55 71.4 196.75 71.4 196.573046875 71.4 196.4 71.4 196.7177734375 71.10625 196.95 70.7 197.6 69.6 197.25 68.4 196.95 67.4 196.1 66.75 195.83046875 66.5634765625 195.5 66.45 195.592578125 66.419140625 195.65 66.4 195.8 66.35 195.9 66.25 196.1 66.15 196.25 66.05 196.45 65.95 196.6 65.9 196.8 65.8 196.95 65.75 197.2 65.6 197.4 65.5 197.6 65.35 197.8 65.2 198.05 65.15 198.3 65.05 198.55 64.95 198.75 64.85 199 64.75 199.2 64.6 199.4 64.6 199.6 64.55 199.8 64.55 200 64.5 200.2 64.45 200.35 64.35 200.55 64.25 200.7 64.2 200.85 64.1 201.05 63.95 201.15 63.85 201.3 63.7 201.45 63.55 201.55 63.4 201.7 63.25 201.8 63.1 201.85 62.95 201.95 62.75 202.05 62.6 202.1 62.4 202.15 62.2 202.15 62 202.2 61.8 202.2 61.6 202.2 61.4556640625 202.15 61.3 202.2 60.742578125 202.2 60.2 202.2 58.8 202.2 57.4 202.2 56.3 202.2 55.15 202.2 54.1 202.2 53 202.16640625 52.2607421875 202.15 51.55 202.673046875 51.02109375 203.1 50.4 204.1 48.9 204.1 47.15 204.05 45.35 203.35 43.75 203.1916015625 43.3865234375 203 43.05 203 42.4271484375 203 41.8 203 40.1 203 38.4 203 36.7 203 35 203 33.5 203.05 32
M 179 31.8
Q 179.25 31.8 179.55 31.8 179.75 31.8 179.95 31.8 179.8 31.85 179.7 31.9 179.55 31.9 179.45 31.95 179.3 32 179.15 32.05 179 32.15 178.9 32.2 178.75 32.3 178.6 32.35 178.45 32.4 178.35 32.45 178.2328125 32.528125 178.1 32.55 178.10625 32.331640625 178.05 32.1 178.25 31.95 178.45 31.8 178.7 31.8 179 31.8
M 163.75 42.75
Q 163.967578125 42.31484375 164.2 41.9 164.2 42.2296875 164.2 42.55 164.2 42.7 164.2 42.9 164.2 43.05 164.2 43.25 164.2 43.4 164.2 43.6 164.2 43.7 164.2 43.8 164.1 43.85 164 43.95 163.95 44 163.9 44.05 163.8 44.2 163.7 44.3 163.6 44.4 163.5 44.5 163.35 44.65 163.3 44.75 163.2 44.85 163.1 45 162.9 45 162.7 45 162.382421875 45 162 45.05 162.1380859375 44.9232421875 162.25 44.8 162.55 44.45 162.9 44.1 163.4 43.45 163.75 42.75
M 188.85 31.75
Q 188.8212890625 31.3998046875 188.65 31.1 188.6310546875 31.049609375 188.6 31 189.0052734375 31 189.4 31 189.699609375 31 190 31 189.367578125 31.2966796875 188.85 31.75
M 183.55 47.35
Q 183.7 47.35 183.9 47.35 184.05 47.35 184.25 47.35 184.35 47.35 184.4 47.35 184.5 47.3 184.6 47.3 184.6 47.4 184.6 47.45 184.6 47.55 184.6 47.65 184.55 47.7 184.55 47.8 184.5 47.85 184.45 47.9 184.4 48 184.4 48.05 184.35 48.15 184.3 48.2 184.25 48.25 184.15 48.3 184 48.4 183.85 48.5 183.65 48.6 183.5 48.75 183.3646484375 48.840234375 183.2 48.9 183.1662109375 48.765234375 183.1 48.6 183.05 48.35 182.95 48.1 182.85 47.9 182.7 47.65 182.5857421875 47.512890625 182.45 47.35 182.5107421875 47.3283203125 182.55 47.25 182.6 47.2 182.65 47.1 182.7 47.15 182.8 47.2 183 47.25 183.15 47.3 183.35 47.3 183.55 47.35
M 196.05 38.55
Q 196 38.4 195.95 38.25 195.85 38.15 195.75 38 196.3455078125 37.7349609375 196.85 37.25 196.928515625 37.171484375 197 37.1 197 37.9876953125 197 38.85 197 39.3154296875 197 39.75 196.751953125 39.7775390625 196.5 39.8 196.45 39.65 196.45 39.55 196.4 39.45 196.4 39.3 196.35 39.2 196.3 39.1 196.25 39 196.2 38.85 196.15 38.7 196.05 38.55
M 195.6 46.4
Q 195.55 46.3 195.55 46.2 195.5 46.1 195.45 46 195.45 45.9 195.4 45.8 195.5 45.8 195.6 45.8 195.9 45.8 196.2 45.8 196.4 45.8 196.6 45.8 196.734765625 45.8 196.85 45.8 196.802734375 45.91796875 196.75 46.05 196.65 46.25 196.55 46.5 196.45 47 196.35 47.5 196.317578125 47.7921875 196.3 48.05 196.2458984375 47.9958984375 196.2 47.95 196.1 47.85 196.05 47.75 196 47.55 195.95 47.35 195.9 47.25 195.85 47.15 195.85 47.05 195.8 46.95 195.75 46.85 195.75 46.75 195.7 46.7 195.65 46.6 195.65 46.5 195.6 46.4
M 190.25 49.55
L 190.3 49.5
Q 190.3 49.4515625 190.3 49.4 190.3015625 49.4515625 190.35 49.5
L 190.35 49.55
Q 190.35 49.6 190.4 49.6 190.4 49.65 190.4 49.7
L 190.45 49.75 190.45 49.85 190.5 49.9
Q 190.45 49.95 190.4 49.95
L 190.3 49.95
Q 190.25 50 190.2 50
L 190.1 50 190.1 49.95
Q 190.1 49.9 190.15 49.9 190.15 49.85 190.15 49.8 190.2 49.8 190.2 49.75
L 190.2 49.7
Q 190.25 49.65 190.25 49.6
L 190.25 49.55
M 185.1 54.8
Q 185.05 55.2 185 55.65 185 55.8689453125 185 56.1 184.95 56.069921875 184.9 56.05 184.6 56 184.25 55.95 183.9 55.9 183.55 55.85 183.15 55.8 182.8 55.8 182.5904296875 55.8 182.35 55.8 183.7720703125 55.509765625 185.1 54.8
M 185 69.05
Q 185.0708984375 69.5427734375 185.3 70.05 185.780859375 71.0115234375 186.7 71.4 185.1099609375 71.4 183.5 71.4 183.16484375 71.4 182.8 71.4 183.1841796875 71.19609375 183.5 70.9 184.05 70.35 184.25 69.6 184.3083984375 69.412890625 184.35 69.2 184.68984375 69.1615234375 185 69.05
M 162.1 51.2
Q 162.1 51.136328125 162.1 51.05 162.1703125 51.05 162.25 51.05
L 162.3 51
Q 162.35 51.25 162.4 51.5 162.430859375 51.6541015625 162.45 51.8 162.3701171875 51.7302734375 162.3 51.65 162.25 51.6 162.2 51.5 162.15 51.35 162.1 51.2
M 171.8 64.5
Q 171.6 64.6 171.35 64.75 171.15 64.85 170.95 65 170.65 65 170.35 65 169.0716796875 65 167.75 65 168 64.4748046875 168 63.85 168 63.5646484375 167.95 63.25 168.698046875 63.57890625 169.45 63.8 170.4 64.1 171.35 64.35 171.6267578125 64.398828125 171.9 64.45 171.8517578125 64.479296875 171.8 64.5
M 136.5 35
Q 136.390625 35.003125 136.25 35.05 136.05 35.05 135.9 35.1 135.75 35.1 135.6 35.15 135.488671875 35.07578125 135.4 35 135.9689453125 35.000390625 136.5 35
M 140.5 40.95
Q 140.55 40.85 140.6 40.75 140.75 40.65 140.95 40.6 141.1 40.5 141.25 40.4 141.4 40.35 141.55 40.3 141.75 40.25 141.9 40.2 141.8 40.3 141.75 40.4 141.55 40.65 141.4 40.9 141.2 41.15 141.05 41.4 140.9 41.6 140.8 41.85 140.7 42.1 140.6 42.35 140.55 42.55 140.45 42.7 140.35 43.1 140.25 43.45 140.2 43.6 140.1 43.75 140 43.9 139.95 44.05 139.85 44.2 139.8 44.35 139.75 44.5 139.7 44.65 139.65 44.8 139.6 44.95 139.55 45.1 139.5 45.2 139.45 45.35 139.4 45.5 139.35 45.65 139.3 45.75 139.25 45.9 139.2 46.05 139.15 46.2 139.15 46.35 139.1 46.45 139.05 46.6 139 46.8 138.9 46.95 138.85 47.15 138.75 47.35 138.7 47.5 138.6 47.7 138.6 47.55 138.6 47.4 138.6 47.25 138.6 47.05 138.65 46.85 138.75 46.7 138.8 46.55 138.8 46.4 138.85 46.25 138.9 46.05 138.9 45.85 138.95 45.7 138.95 45.5 138.95 45.35 139 45.2 139 45.1 139 45 139 44.9 139.05 44.7 139.1 44.55 139.15 44.4 139.2 44.2 139.25 44.05 139.3 43.9 139.35 43.75 139.45 43.65 139.5 43.45 139.6 43.3 139.65 43.1 139.75 42.95 139.8 42.8 139.85 42.6 139.95 42.45 140 42.3 140 42.2 140.05 42.05 140.05 41.95 140.05 41.85 140.15 41.7 140.2 41.55 140.25 41.45 140.3 41.3 140.35 41.25 140.4 41.15 140.45 41.05 140.5 40.95
M 159.9 34.45
Q 159.8529296875 34.3208984375 159.8 34.2 159.9724609375 34.2 160.15 34.2 160.4728515625 34.2 160.8 34.2 160.7158203125 34.2947265625 160.65 34.4 160.4 34.75 160.25 35.2 160.1 35.75 160.15 36.35 160.1798828125 36.708984375 160.3 37.05 160.2 37.2 160.1 37.35 159.95 37.45 159.85 37.6 159.75 37.75 159.65 37.85 159.55 38 159.45 38.15 159.35 38.3 159.3 38.45 159.2 38.4 159.15 38.3 159.05 38.2 158.95 38.1 159.1 37.95 159.3 37.75 159.6 37.45 159.8 37.1 160 36.7 160.1 36.3 160.15 35.9 160.15 35.5 160.1 34.95 159.9 34.45
M 147.85 41.95
Q 147.915625 41.884375 147.95 41.8 147.8537109375 42.0736328125 147.75 42.35 147.7314453125 42.2755859375 147.7 42.2 147.7845703125 42.080859375 147.85 41.95
M 120.85 34.5
Q 120.8669921875 34.5490234375 120.85 34.6 120.6029296875 35.34140625 120.55 36.1 120.55 36.0162109375 120.55 35.9 120.5 35.75 120.45 35.6 120.4 35.45 120.3 35.35 120.25 35.2 120.2 35.05 120.1 34.95 120.05 34.8 119.95 34.65 119.85 34.55 119.8 34.4 119.75 34.25 119.7328125 34.22421875 119.7 34.2 120.0568359375 34.2 120.4 34.2 120.55 34.3 120.7 34.4 120.79921875 34.449609375 120.85 34.5
M 103.2 34.6
Q 103.05 34.55 102.9 34.5 102.75 34.45 102.6 34.4 102.45 34.35 102.3 34.3 102.15 34.25 102 34.2 103.415625 34.2 104.8 34.2 104.65546875 34.4 104.5 34.6 104.4 34.6 104.3 34.6 104.15 34.6 103.95 34.6 103.75 34.6 103.55 34.6 103.4 34.6 103.2 34.6
M 105.35 46.7
Q 105.4 46.85 105.45 46.95 105.5 47.1 105.6 47.25 105.65 47.35 105.7 47.4 105.3275390625 47.4 104.95 47.4 105.1005859375 46.901953125 105.25 46.4 105.25 46.55 105.35 46.7
M 118.9 61.1
Q 118.8 61.25 118.7 61.4 118.65 61.6 118.55 61.75 118.5 61.95 118.45 62.1 118.4 62.25 118.4 62.35 118.35 62.5 118.35 62.65 118.3 62.75 118.25 62.9 118.2 63.05 118.15 63.2 118.117578125 63.2974609375 118.05 63.35 117.6166015625 63.3703125 117.15 63.35 117.126953125 63.2810546875 117.1 63.2 117.1 63.05 117.05 62.9 117 62.75 116.95 62.65 116.85 62.5 116.75 62.4 116.7201171875 62.310546875 116.7 62.2 116.6955078125 62.187890625 116.7 62.15 116.7443359375 61.6923828125 116.8 61.2 118.219140625 61.5037109375 119.15 60.55 119.157421875 60.5990234375 119.15 60.65 119.1 60.75 119 60.85 118.95 60.95 118.9 61.1
M 108.5 60.95
Q 108.65 61.35 108.9 61.75 109.15 62.1 109.45 62.45 109.606640625 62.62890625 109.75 62.8 109.75703125 63.0611328125 109.75 63.3 109.546875 63.329296875 109.35 63.3 108.94296875 62.345703125 108.05 61.8 107.35 61.4 106.5 61.4 106.44375 61.3154296875 106.4 61.2 107.369921875 60.630078125 108.2 59.8 108.25 60.1 108.35 60.4 108.4 60.65 108.5 60.95
M 152.5 50.4
Q 152.3 50.55 152.1 50.7 151.85 50.85 151.65 51.05 151.45 51.3 151.25 51.55 151.1 51.75 151 52 151 51.95 151 51.85 151.05 51.8 151.05 51.7 151.05 51.65 151.1 51.6 151.1 51.5 151.15 51.45 151.15 51.35 151.2 51.3 151.25 51.25 151.35 51.2 151.55 51.05 151.75 50.9 152 50.75 152.2 50.6 152.4 50.4 152.65 50.25 152.85 50.1 153.1 49.9 153.45 49.65 153.35 49.8 153.15 50 152.95 50.1 152.7 50.25 152.5 50.4
M 152.25 59.4
Q 152.3 59.4 152.35 59.4
L 152.4 59.4
Q 152.4 59.45 152.35 59.45 152.35 59.5 152.3 59.5 152.3 59.55 152.3 59.6 152.25 59.6 152.25 59.65 152.15 59.7 152.1 59.75 152.05 59.8 152 59.85 151.95 59.9 151.9 59.95 151.85 60 151.8 60.05 151.75 60.1 151.7 60.15
L 151.7 60.1
Q 151.65 60 151.65 59.95 151.65 59.85 151.65 59.8 151.6 59.75 151.6 59.65 151.6 59.6 151.55 59.55 151.55 59.45 151.5 59.4 151.6 59.4 151.65 59.4 151.75 59.4 151.8 59.4 151.9 59.4 151.95 59.4 152.05 59.4 152.1 59.4 152.2 59.4 152.25 59.4
M 159.4 60.15
Q 159.4 60.0212890625 159.4 59.85 159.4248046875 59.8927734375 159.45 59.9 159.75 60 160.1 60.05 160.179296875 60.0599609375 160.25 60.05 160.3033203125 60.2099609375 160.35 60.35 160.35 60.5 160.4 60.65 160.45 60.8 160.5 60.9 160.55 61.05 160.6 61.2 160.6 61.35 160.65 61.55 160.65 61.7 160.65 61.85 160.7 62.05 160.7 62.2 160.75 62.35 160.8 62.55 160.8 62.7 160.85 62.8 160.9 62.95 160.95 63.1 161.05 63.2 161.15 63.35 161.2 63.45 161.3 63.55 161.4 63.7 161.5 63.8 161.55 63.9 161.65 64 161.7 64.15 161.75 64.35 161.85 64.5 161.9 64.65 162 64.8 162.1 65 161.471484375 65 160.85 65 160.2822265625 65 159.7 65 160.2353515625 63.5783203125 159.4 62.35 159.4 61.95 159.4 61.6 159.4 61.25 159.4 60.9 159.4 60.55 159.4 60.15
M 142.15 57.85
Q 142.11953125 57.8296875 142.1 57.8 142.1474609375 57.7048828125 142.2 57.6 142.2 57.72578125 142.2 57.85
L 142.15 57.85
M 156.55 72.2
Q 156.0611328125 72.2 155.55 72.2 156.6359375 71.9947265625 157.4 71.15 157.4705078125 71.61640625 157.7 72.05 157.7359375 72.1263671875 157.75 72.2 157.178125 72.2 156.55 72.2
M 126.65 62.8
Q 126.9 63 127.2 63.15 127.35 63.25 127.5 63.35 127.570703125 63.3736328125 127.65 63.4 126.2345703125 63.4 124.8 63.4 124.8373046875 63.2265625 124.85 63.05 125 62.95 125.15 62.85 125.3 62.75 125.45 62.65 125.6 62.55 125.75 62.45 125.95 62.4 126.15 62.35 126.25 62.45 126.4 62.6 126.5 62.7 126.65 62.8
M 139.25 63.1
Q 139.4 63.15 139.55 63.25 139.66328125 63.2876953125 139.75 63.35 138.77578125 63.366015625 137.75 63.35 137.8208984375 63.2873046875 137.85 63.2 137.9 63.15 137.9 63.1 138 63 138.15 62.85 138.2142578125 62.753515625 138.25 62.65 138.59453125 62.8333984375 138.95 62.9 139.1 63 139.25 63.1 Z"/>
</g>
</defs>

<g transform="matrix( 1, 0, 0, 1, 0,0) ">
<use xlink:href="#Layer1_0_FILL"/>
</g>

<g transform="matrix( 0.4933319091796875, 0, 0, 0.4933319091796875, 1299.35,302.85) ">
<g transform="matrix( 2.819091796875, 0, 0, 2.819091796875, -2538.2,-347.7) ">
<use xlink:href="#Cartoon_Rhythms_0_Layer0_0_MEMBER_0_MEMBER_0_FILL"/>
</g>

<g transform="matrix( 2.819091796875, 0, 0, 2.819091796875, -2538.2,-347.7) ">
<use xlink:href="#Cartoon_Rhythms_0_Layer0_0_MEMBER_1_MEMBER_0_FILL"/>
</g>

<g transform="matrix( 2.819091796875, 0, 0, 2.819091796875, -2538.2,-347.7) ">
<use xlink:href="#Cartoon_Rhythms_0_Layer0_0_MEMBER_2_MEMBER_0_FILL"/>
</g>
</g>

<g transform="matrix( 1, 0, 0, 1, 0,0) ">
<use xlink:href="#Layer0_0_FILL"/>
</g>
</svg>
