
<svg xmlns="http://www.w3.org/2000/svg" version="1.1" xmlns:xlink="http://www.w3.org/1999/xlink" preserveAspectRatio="none" x="0px" y="0px" width="226px" height="226px" viewBox="0 0 226 226">
<defs>
<g id="Cartoon_Rhythms_0_Layer0_0_MEMBER_0_MEMBER_0_FILL">
<path fill="#000000" stroke="none" d="
M 941.1 49.6
Q 937.7 49.6 937.55 53 936.3 84.7 935.9 103 935.3 130.6 935.75 153 935.85 156.95 939.8 156.9 943.75 156.9 943.9 153 945.7 102.55 944.6 53 944.55 49.6 941.1 49.6 Z"/>
</g>

<g id="Cartoon_Rhythms_0_Layer0_0_MEMBER_1_MEMBER_0_FILL">
<path fill="#000000" stroke="none" d="
M 864.6 182.35
Q 868.35 192.85 879.65 196.1 890.85 199.35 903.55 196.45 915.65 193.65 925.3 186.3 937.05 177.3 941.25 165.25 943.5 158.75 942.95 152.15 942.3375 144.8462890625 938.25 140.85 938.0509765625 140.409375 937.8 139.95 935.5 135.9 930.95 133.8 926 131.55 919.3 131.75 914.45 131.95 907.5 133.6 894.6 136.75 884.05 143.5 871.95 151.25 866.5 161.65 860.95 172.15 864.6 182.35
M 871.3 185
Q 863.8 174.75 872.1 162.2 878.55 152.5 890.45 145.7 901.5 139.3 913.85 137.3 922.4 135.85 928.7 137.95 933.5509765625 139.596875 935.7 143.15 936.2056640625 145.2064453125 937.05 148.4 937.95 152.2 937.9 155.1 937.7 161.5 934.6 167.6 929.35 178.05 918.25 184.85 907.15 191.75 894.35 192.45 877.4 193.3 871.3 185 Z"/>
</g>

<g id="Cartoon_Rhythms_0_Layer0_0_MEMBER_2_MEMBER_0_FILL">
<path fill="#000000" stroke="none" d="
M 867.55 181.75
Q 869.05 182.5 870.35 181.75 870.6875 181.5552734375 871 181.35 872.054296875 184.204296875 874.35 186.5 879.15 191.3 886.55 191.8 886.97421875 191.8259765625 887.4 191.85 894.4521484375 193.697265625 902.25 192.9 918.1 191.3 928.3 179.55 932.1 175.15 933.45 170.4 933.58515625 169.921484375 933.65 169.45 934.1138671875 168.6326171875 934.5 167.7 935.891796875 165.57265625 936.5 164.1 937.7470703125 161 936.9 158.95 937.0455078125 158.02109375 937.1 157.15 937.6482421875 155.0033203125 937.35 152.45 937.2130859375 151.3025390625 936.9 150.1 937.3384765625 150.046875 937.75 149.8 938.8 149.2 939.05 148.15 941.3646484375 139.4220703125 930.8 138.9 927.3662109375 135.6501953125 922.3 136.2 919.4732421875 136.5359375 916.35 138 918.3171875 138.105078125 920.2 138.5 920.66953125 138.6005859375 920.95 138.85 922.347265625 138.9873046875 923.75 139.2 922.551953125 139.3888671875 921.35 139.6 921.290234375 139.1365234375 920.95 138.85 918.916015625 138.6435546875 916.9 138.65 916.502734375 138.36875 916.05 138.15 916.212109375 138.0830078125 916.35 138 916.0625 138.0060546875 915.75 138 913.405078125 136.9005859375 910.05 137.35 906 137.9 901.2 140.6 899.602734375 141.5005859375 898 142.65 896.2287109375 143.4873046875 894.35 144.5 893.883984375 144.7544921875 893.4 145 892.23515625 143.8197265625 890.4 144.65 880.05 149.25 873.5 158.7 867.05 168 866.2 179.35 866.05 180.9 867.55 181.75
M 881.1 171.3
Q 881.7193359375 171.825 882.6 171.9 881.16953125 174.4912109375 879.7 177.3 879.441796875 177.459375 879.15 177.6 879.1796875 177.5251953125 879.2 177.45 879.8 175.45 879.95 174.85 880.4517578125 173.0369140625 881.1 171.3
M 877.35 165.15
Q 877.83046875 164.7845703125 878.25 164.4 878.04921875 164.840234375 877.8 165.25 877.6 165.1861328125 877.35 165.15
M 876.4 165.9
Q 875.716015625 166.43203125 875.05 166.6 875.3361328125 166.0357421875 875.65 165.45 875.7986328125 165.3701171875 875.95 165.3
L 876.4 165.9
M 924.75 158.1
Q 924.918359375 157.688671875 925.05 157.25 925.5814453125 155.5228515625 925.65 153.9 926.5603515625 153.25 926.95 153.05 926.7513671875 154.05625 925.75 156.15 925.3072265625 157.1498046875 924.75 158.1
M 915.85 152.65
Q 915.6578125 152.6677734375 915.45 152.7 915.3607421875 152.7150390625 915.25 152.7 915.4263671875 152.6361328125 915.6 152.55 916.1103515625 152.3025390625 916.6 152.05 916.2345703125 152.3671875 915.85 152.65 916.0046875 152.6345703125 916.15 152.6
L 914.05 154.3
Q 914.5087890625 153.792578125 914.9 153.3 915.3859375 152.987890625 915.85 152.65
M 925.65 170.1
Q 925.3900390625 170.441796875 925.1 170.75 924.8505859375 171.01171875 924.6 171.25 924.570703125 171.1140625 924.55 170.9 925.030078125 170.57734375 925.5 170.25 925.5857421875 170.190625 925.65 170.1
M 899.85 172.65
L 906.55 167.3
Q 905.5408203125 169.3333984375 904.65 171.5 903.5654296875 172.0646484375 902.45 172.5 900.4787109375 173.309375 899.85 172.65
M 899.4 149.9
Q 899.0302734375 149.5220703125 898.55 149.25 900.79140625 147.86796875 903.25 146.75 901.36875 148.1240234375 899.4 149.9
M 905 186.85
Q 905.4369140625 186.601953125 905.75 186.4 907.0998046875 186.206640625 908.4 185.9 906.7345703125 186.4826171875 905 186.85
M 918.85 175.15
Q 919.0435546875 175.428125 919.2 175.65 917.631640625 176.6984375 915.9 177.55 917.4017578125 176.3357421875 918.85 175.15
M 892.7 155.6
Q 890.240234375 157.8494140625 887.35 160.7 890.104296875 157.2806640625 892.7 155.6 Z"/>
</g>
</defs>

<g transform="matrix( 0.4933319091796875, 0, 0, 0.4933319091796875, 108.35,113.05) ">
<g transform="matrix( 2.819091796875, 0, 0, 2.819091796875, -2538.2,-347.7) ">
<use xlink:href="#Cartoon_Rhythms_0_Layer0_0_MEMBER_0_MEMBER_0_FILL"/>
</g>

<g transform="matrix( 2.819091796875, 0, 0, 2.819091796875, -2538.2,-347.7) ">
<use xlink:href="#Cartoon_Rhythms_0_Layer0_0_MEMBER_1_MEMBER_0_FILL"/>
</g>

<g transform="matrix( 2.819091796875, 0, 0, 2.819091796875, -2538.2,-347.7) ">
<use xlink:href="#Cartoon_Rhythms_0_Layer0_0_MEMBER_2_MEMBER_0_FILL"/>
</g>
</g>
</svg>
